<?xml version="1.0" encoding="UTF-8"?>
<svg width="261px" height="18px" viewBox="0 0 261 18" version="1.1" xmlns="http://www.w3.org/2000/svg" xmlns:xlink="http://www.w3.org/1999/xlink">
    <!-- Generator: Sketch 49.3 (51167) - http://www.bohemiancoding.com/sketch -->
    <title>chainrock-logo-w</title>
    <desc>Created with Sketch.</desc>
    <defs></defs>
    <g id="Website-V1" stroke="none" stroke-width="1" fill="none" fill-rule="evenodd" opacity="0.656193388">
        <g id="hero-2-copy-2" transform="translate(-163.000000, -991.000000)" fill="#FFFFFF" fill-rule="nonzero">
            <g id="chainrock-logo-w" transform="translate(163.000000, 991.000000)">
                <path d="M2.55953813,0.46125 C3.38935553,0.08859375 4.31168636,0.1828125 5.19476907,0.17578125 C8.20425886,0.1715625 11.2151504,0.18421875 14.2260419,0.16875 C13.5504135,0.88734375 13.0892481,1.783125 12.8677766,2.745 C9.92837272,2.745 6.98896885,2.73234375 4.04956498,2.750625 C3.28282492,2.739375 2.6324275,3.44390625 2.66606874,4.2046875 C2.66046187,7.3996875 2.66326531,10.5946875 2.66466702,13.7882813 C2.65064984,14.293125 2.87772825,14.821875 3.3262782,15.0792188 C3.75240064,15.3660938 4.28505371,15.2859375 4.76864662,15.2957813 C10.2395542,15.2873438 15.7104619,15.2985938 21.1799678,15.2901563 C21.9074597,15.3098438 22.5788829,14.664375 22.563464,13.9275 C22.5774812,11.5551563 22.5578571,9.18 22.5718743,6.80625 C23.0008002,6.56296875 23.4283244,6.31546875 23.8516434,6.06375 C24.2973899,6.31125 24.7375295,6.56578125 25.1692589,6.83578125 C25.1075832,9.2446875 25.1272073,11.6535938 25.1272073,14.0610938 C25.1300107,16.0734375 23.3175886,17.8734375 21.3145328,17.859375 C15.5170247,17.859375 9.71951665,17.859375 3.92060687,17.859375 C1.91334586,17.8748438 0.121949517,16.0748438 0.107932331,14.0667188 C0.100923738,10.7367188 0.107932331,7.40671875 0.105128894,4.07671875 C0.0911117078,2.5171875 1.11716971,1.029375 2.55953813,0.46125 Z" id="Shape"></path>
                <path d="M16.0791139,1.08984375 C16.7827766,0.48796875 17.7107143,0.1659375 18.6344468,0.17296875 C24.0100376,0.17859375 29.3870301,0.174375 34.7640226,0.17578125 C35.4943179,0.18 36.2456391,0.1153125 36.9507035,0.35578125 C38.5907143,0.85078125 39.7639527,2.50875 39.7050806,4.224375 C39.698072,7.50234375 39.7120892,10.7817188 39.6994737,14.0596875 C39.672841,16.0171875 37.9879753,17.78625 36.0297744,17.8551563 C32.6810687,17.865 29.3323631,17.8565625 25.9822556,17.859375 C26.5695757,17.1084375 26.9676638,16.228125 27.1526907,15.2915625 C29.9743502,15.294375 32.7946079,15.2915625 35.6162675,15.294375 C36.081638,15.3182813 36.5624275,15.1298438 36.8427712,14.7473438 C37.1287218,14.4014063 37.1469441,13.9303125 37.1483459,13.5014063 C37.1413373,10.45125 37.1483459,7.3996875 37.1455424,4.34953125 C37.1651665,3.86296875 36.9913534,3.3609375 36.6002739,3.05578125 C36.1685446,2.68453125 35.5630021,2.7421875 35.0345542,2.739375 C29.8524006,2.745 24.6688453,2.74359375 19.4866917,2.74078125 C18.9358163,2.75484375 18.3190602,2.65640625 17.8396724,2.99671875 C17.4387809,3.25828125 17.2060956,3.7321875 17.2397368,4.21171875 C17.2425403,6.88921875 17.2411386,9.568125 17.2411386,12.2470313 C16.8094092,12.5015625 16.3748765,12.7546875 15.9403437,13.005 C15.5114178,12.7532813 15.0824919,12.5029688 14.6507626,12.256875 C14.6451557,9.57796875 14.6479592,6.89765625 14.6479592,4.21875 C14.6395489,3.03046875 15.156783,1.845 16.0791139,1.08984375 Z" id="Shape"></path>
                <path d="M67.3063212,0.163125 C69.3696509,-0.06890625 71.5184855,0.44296875 73.2313856,1.6284375 C73.4864984,1.77609375 73.6575081,2.10796875 73.4752846,2.379375 C73.1262567,3.054375 72.7281686,3.70828125 72.3258754,4.35234375 C72.0805747,4.77140625 71.5745542,4.50421875 71.2843985,4.2890625 C69.43413,3.01921875 66.7764715,3.05015625 65.0131096,4.46625 C62.7871805,6.1678125 62.2643394,9.5653125 63.6366219,11.9629687 C64.4271912,13.3973438 65.9228249,14.416875 67.546015,14.6095313 C68.8454082,14.7839062 70.1980666,14.4576562 71.2942105,13.7404687 C71.5619388,13.595625 71.8380773,13.3284375 72.1646778,13.4578125 C72.4996885,13.7714063 72.6833136,14.203125 72.9230075,14.585625 C73.1388722,14.9779688 73.4220193,15.339375 73.5706015,15.7654688 C73.672927,16.0678125 73.3897798,16.30125 73.1683083,16.4460938 C71.6796831,17.415 69.9009023,17.9507813 68.1221214,17.89875 C65.4756767,17.89875 62.883899,16.5839063 61.2719227,14.4857813 C59.905247,12.7504687 59.2394307,10.4864062 59.4398765,8.285625 C59.5730397,6.463125 60.3033351,4.69828125 61.469565,3.29765625 C62.9077282,1.54125 65.0565628,0.40359375 67.3063212,0.163125 Z" id="Shape"></path>
                <path d="M202.475446,0.2446875 C204.753238,-0.12375 207.171203,0.421875 209.039694,1.7915625 C211.136665,3.27234375 212.504742,5.71640625 212.709393,8.27859375 C212.946284,10.7620312 212.057594,13.3214062 210.339087,15.1242187 C208.679452,16.9157812 206.243265,17.9451562 203.80848,17.89875 C201.112975,17.926875 198.466531,16.5867187 196.844742,14.4379687 C195.541144,12.7490625 194.899157,10.5735937 195.050542,8.44453125 C195.189313,5.720625 196.707374,3.133125 198.964141,1.625625 C200.019635,0.92390625 201.223711,0.4471875 202.475446,0.2446875 Z M202.759995,2.4975 C201.187266,2.77453125 199.715462,3.639375 198.723045,4.89796875 C197.272266,6.6909375 196.869973,9.275625 197.755859,11.4145313 C198.671182,13.8290625 201.121386,15.5503125 203.696343,15.5840625 C205.927879,15.6670313 208.146799,14.484375 209.353679,12.6028125 C210.717551,10.5707813 210.801654,7.7625 209.52609,5.6671875 C208.202868,3.3525 205.385414,2.00109375 202.759995,2.4975 Z" id="Shape"></path>
                <path d="M229.804753,0.219375 C232.099366,-0.10125 234.54957,0.4753125 236.37601,1.929375 C236.727841,2.24015625 236.415258,2.68875 236.234436,2.99953125 C236.008759,3.31875 235.858776,3.75609375 235.47891,3.91640625 C234.75282,3.68296875 234.185124,3.09796875 233.440811,2.88703125 C230.749511,1.80140625 227.489114,2.8659375 225.776214,5.1665625 C224.307213,7.0678125 224.021262,9.8015625 225.111799,11.9503125 C226.185516,14.2045312 228.649737,15.6839062 231.136386,15.5840625 C232.525489,15.586875 233.817873,14.968125 234.974291,14.2453125 C235.187352,14.1103125 235.563013,13.9710937 235.7158,14.2607812 C236.029785,14.7740625 236.479737,15.2676562 236.544216,15.8864062 C236.353582,16.2829687 235.906434,16.4475 235.564415,16.6795312 C233.059544,18.1870312 229.80195,18.3079687 227.179334,17.0339062 C225.205714,16.07625 223.60355,14.3648437 222.808776,12.313125 C221.774307,9.6975 222.049044,6.58265625 223.593738,4.22296875 C224.950602,2.06296875 227.284463,0.56671875 229.804753,0.219375 Z" id="Shape"></path>
                <path d="M83.7610956,0.49359375 C83.9867723,0.3403125 84.2741246,0.39796875 84.5306391,0.3825 C85.302986,0.4134375 86.0879484,0.30796875 86.8490816,0.489375 C86.9205693,0.7396875 86.9864501,0.995625 86.9808432,1.25859375 C86.9738346,3.1359375 86.9780397,5.01328125 86.976638,6.890625 C89.5586037,6.890625 92.1405693,6.890625 94.7211332,6.890625 C94.7225349,4.96828125 94.7197315,3.04734375 94.7211332,1.12640625 C94.7239366,0.83671875 94.787014,0.36140625 95.17529,0.39375 C96.0177229,0.3825 96.8643609,0.3684375 97.7067938,0.4021875 C97.9955478,0.41203125 98.1245059,0.71296875 98.0866595,0.96890625 C98.0838561,6.36890625 98.0894629,11.7703125 98.0838561,17.1703125 C98.1329162,17.47125 97.8287433,17.67375 97.5582116,17.6442188 C96.7213856,17.6442188 95.8817562,17.6807813 95.0491353,17.6217188 C94.7505693,17.5851563 94.7183298,17.2504688 94.7197315,17.0142188 C94.7211332,14.7178125 94.7211332,12.4214063 94.7211332,10.125 C92.1391676,10.125 89.5572019,10.1235937 86.976638,10.1264063 C86.9738346,12.4720313 86.9822449,14.8190625 86.9738346,17.1646875 C87.0453222,17.5246875 86.6416273,17.6779687 86.3514715,17.6498438 C85.5146455,17.62875 84.670811,17.7004688 83.8395918,17.6076563 C83.7933351,17.56125 83.7008217,17.4698438 83.6531633,17.4234375 C83.5718636,16.9635938 83.6209237,16.4939063 83.6125134,16.0284375 C83.6111117,11.2964063 83.6153169,6.56296875 83.60971,1.8309375 C83.6251289,1.38515625 83.5396241,0.90421875 83.7610956,0.49359375 Z" id="Shape"></path>
                <path d="M114.401262,0.4275 C115.226874,0.35296875 116.070709,0.365625 116.899125,0.42046875 C117.186477,0.6778125 117.300016,1.06453125 117.454205,1.40625 C119.504919,6.51515625 121.523394,11.638125 123.568502,16.7484375 C123.659613,17.01 123.854452,17.4853125 123.482997,17.6034375 C122.789146,17.7089063 122.08268,17.6203125 121.384624,17.6526563 C121.001955,17.6442188 120.446874,17.735625 120.287078,17.2771875 C119.891794,16.3448438 119.539962,15.3942188 119.174114,14.4492188 C116.808013,14.4464063 114.441912,14.45625 112.077213,14.445 C111.688937,15.4153125 111.346917,16.4039063 110.927803,17.3601563 C110.773614,17.6990625 110.344689,17.64 110.041917,17.6526563 C109.297605,17.6259375 108.547685,17.6976563 107.807578,17.6132813 C107.40949,17.4515625 107.649184,16.9523438 107.743099,16.6584375 C109.754565,11.6128125 111.782852,6.5728125 113.79572,1.5271875 C113.959721,1.14609375 114.067653,0.703125 114.401262,0.4275 Z M113.201391,11.4257813 C114.821778,11.424375 116.442164,11.4271875 118.062551,11.424375 C117.26217,9.24046875 116.456182,7.059375 115.651595,4.876875 C114.800752,7.04671875 114.048029,9.25453125 113.201391,11.4257813 Z" id="Shape"></path>
                <path d="M133.272599,0.39375 C134.169699,0.39796875 135.068201,0.35578125 135.963899,0.405 C136.268072,0.41203125 136.521783,0.675 136.458706,0.9871875 C136.451697,6.38015625 136.465714,11.7745312 136.451697,17.1675 C136.506364,17.6765625 135.893813,17.6695312 135.547589,17.6540625 C134.849533,17.6301562 134.151477,17.6835937 133.457626,17.62875 C132.908153,17.5246875 133.140838,16.8440625 133.088974,16.4517187 C133.097385,11.3442187 133.091778,6.2353125 133.091778,1.1278125 C133.083367,0.87046875 133.182889,0.63 133.272599,0.39375 Z" id="Shape"></path>
                <path d="M147.144006,1.12359375 C147.148212,0.8634375 147.148212,0.4640625 147.479017,0.40640625 C148.406955,0.35859375 149.339098,0.39515625 150.269839,0.388125 C150.585226,0.3459375 150.834731,0.55546875 151.004339,0.80015625 C153.587707,4.494375 156.157057,8.19984375 158.744629,11.89125 C158.743228,8.3025 158.746031,4.71234375 158.743228,1.1221875 C158.733416,0.85078125 158.778271,0.455625 159.117487,0.4134375 C159.906654,0.3515625 160.701429,0.3965625 161.4934,0.388125 C161.82841,0.33890625 162.13819,0.6328125 162.075113,0.9759375 C162.069506,6.37171875 162.079318,11.7660938 162.069506,17.161875 C162.124173,17.4332813 161.871864,17.6442188 161.618153,17.6385938 C160.77572,17.6625 159.933287,17.6498438 159.090854,17.645625 C158.754441,17.6976562 158.559603,17.398125 158.392798,17.161875 C155.737943,13.28625 153.078883,9.41203125 150.440849,5.52515625 C150.43384,9.40640625 150.449259,13.2876563 150.43384,17.1675 C150.466079,17.431875 150.268437,17.6625 149.997905,17.6385938 C149.156874,17.6498438 148.310236,17.679375 147.470607,17.6217188 C147.179049,17.58375 147.141203,17.2575 147.145408,17.0240625 C147.145408,11.7239063 147.14681,6.42375 147.144006,1.12359375 Z" id="Shape"></path>
                <path d="M172.728174,0.973125 C172.70855,0.7340625 172.815081,0.38671875 173.10804,0.3965625 C174.930274,0.37125 176.75391,0.39515625 178.577546,0.38671875 C179.696117,0.399375 180.863749,0.275625 181.920644,0.72984375 C184.007803,1.5075 185.479608,3.6703125 185.419334,5.90625 C185.468394,7.98046875 184.188625,9.9534375 182.352374,10.8689063 C183.312551,12.8053125 184.237685,14.7585938 185.199264,16.695 C185.302991,16.925625 185.422137,17.1689063 185.374479,17.4304688 C185.267948,17.6878125 184.967981,17.6357813 184.752116,17.65125 C184.288147,17.6484375 183.822777,17.6765625 183.364415,17.623125 C183.110704,17.5373438 183.005575,17.2715625 182.890634,17.0578125 C182.000542,15.1621875 181.092229,13.2778125 180.204941,11.3821875 C178.471015,11.401875 176.737089,11.3835938 175.004565,11.3920313 C175.004565,13.2665625 175.004565,15.1410938 175.005967,17.015625 C175.01718,17.2701563 174.956907,17.6160938 174.638716,17.6273438 C174.129893,17.6723438 173.615462,17.668125 173.10804,17.62875 C172.784243,17.6329688 172.714157,17.2785938 172.725371,17.026875 C172.728174,11.6760938 172.723969,6.32390625 172.728174,0.973125 Z M175.005967,2.638125 C175.003163,4.80515625 175.004565,6.9721875 175.004565,9.140625 C176.716063,9.13359375 178.427562,9.1546875 180.13906,9.1321875 C181.598249,9.07734375 182.876617,7.8834375 183.11631,6.45046875 C183.486364,4.6321875 181.983722,2.694375 180.127846,2.63953125 C178.420553,2.63109375 176.711858,2.6409375 175.005967,2.638125 Z" id="Shape"></path>
                <path d="M246.458571,0.45703125 C247.030473,0.33328125 247.634613,0.3459375 248.212121,0.44015625 C248.555542,0.48375 248.559748,0.8521875 248.562551,1.12359375 C248.559748,3.79125 248.555542,6.4575 248.562551,9.12515625 C251.211799,6.3140625 253.883475,3.5240625 256.531321,0.7115625 C256.678502,0.5653125 256.836896,0.3853125 257.069581,0.39796875 C257.958271,0.36140625 258.849764,0.3853125 259.741257,0.410625 C259.365596,0.96328125 258.89602,1.43859375 258.443265,1.92515625 C256.625236,3.8953125 254.767959,5.8275 252.927503,7.7765625 C254.135784,9.20390625 255.341262,10.6340625 256.548142,12.0642187 C258.02275,13.8501562 259.578657,15.5728125 261,17.4009375 L261,17.6301562 C260.154764,17.645625 259.309527,17.6765625 258.467095,17.6371875 C258.224597,17.6554687 258.067605,17.4684375 257.927433,17.3067187 C255.751966,14.6629687 253.544259,12.0459375 251.364586,9.40640625 C250.433845,10.4104687 249.500301,11.4117187 248.558346,12.4045312 C248.559748,13.8965625 248.558346,15.3885937 248.563953,16.8792187 C248.538722,17.1421875 248.591987,17.5767187 248.233147,17.611875 C247.683673,17.6835937 247.118781,17.6864062 246.573512,17.6048437 C246.248314,17.5457812 246.301579,17.1295312 246.279151,16.88625 C246.283357,11.6789062 246.284758,6.47015625 246.279151,1.2628125 C246.276348,0.98578125 246.315596,0.7003125 246.458571,0.45703125 Z" id="Shape"></path>
            </g>
        </g>
    </g>
</svg>