<?xml version="1.0" encoding="UTF-8"?>
<svg width="252px" height="57px" viewBox="0 0 252 57" version="1.1" xmlns="http://www.w3.org/2000/svg" xmlns:xlink="http://www.w3.org/1999/xlink">
    <!-- Generator: Sketch 49.3 (51167) - http://www.bohemiancoding.com/sketch -->
    <title>cryptodex-w</title>
    <desc>Created with Sketch.</desc>
    <defs></defs>
    <g id="Website-V1" stroke="none" stroke-width="1" fill="none" fill-rule="evenodd">
        <g id="hero-2-copy-2" transform="translate(-270.000000, -903.000000)">
            <g id="cryptodex-w" transform="translate(270.000000, 903.000000)">
                <g id="#251259ff" transform="translate(6.384000, 0.000000)" fill="#251259" fill-rule="nonzero">
                    <path d="M19.38216,0.231352941 C19.78536,-0.0335294118 20.33304,-0.0536470588 20.74632,0.201176471 C27.18576,3.84582353 33.6336,7.48208824 40.07304,11.1300882 C38.93064,11.3145 37.77312,11.2256471 36.62232,11.2273235 C33.09432,11.2575 29.568,11.2072059 26.04,11.2357059 C25.1076,11.2440882 24.13488,11.0848235 23.24616,11.4536471 C22.21968,10.9674706 21.19488,10.4745882 20.17008,9.98170588 C19.20408,10.4829706 18.24312,10.9926176 17.27376,11.4871765 C16.91088,11.3396471 16.53288,11.2021765 16.13472,11.2189412 C11.42904,11.2507941 6.72168,11.2072059 2.01432,11.2474412 C1.3692,11.2575 0.72576,11.2122353 0.08568,11.1451765 C6.51504,7.50220588 12.95448,3.87767647 19.38216,0.231352941 Z" id="Shape"></path>
                </g>
                <g id="#48efdbff" transform="translate(10.416000, 9.891176)" fill="#48EFDB" fill-rule="nonzero">
                    <path d="M13.24176,1.596 C14.21112,1.10144118 15.17208,0.591794118 16.13808,0.0905294118 C17.16288,0.583411765 18.18768,1.07629412 19.21416,1.56247059 C23.9568,3.85252941 28.70448,6.13085294 33.4572,8.39744118 C33.28584,8.48964706 33.11448,8.58185294 32.9448,8.67070588 C29.7612,10.2398824 26.59776,11.8459412 23.41584,13.4151176 C21.19992,14.4930882 19.0176,15.6381176 16.80168,16.7127353 C14.43288,15.5760882 12.09936,14.3707059 9.744,13.2055588 C6.7116,11.7000882 3.6876,10.1728235 0.65016,8.67573529 C0.52416,8.60867647 0.27216,8.47455882 0.14616,8.40917647 C4.494,6.10402941 8.88384,3.88102941 13.24176,1.596 Z" id="Shape"></path>
                </g>
                <g id="#251664ff" transform="translate(0.000000, 11.064706)" fill="#251664" fill-rule="nonzero">
                    <path d="M1.428,2.92711765 C3.10968,1.98158824 4.788,1.02767647 6.46968,0.0804705882 C7.10976,0.147529412 7.7532,0.192794118 8.39832,0.182735294 C13.10568,0.1425 17.81304,0.186088235 22.51872,0.154235294 C22.91688,0.137470588 23.29488,0.274941176 23.65776,0.422470588 C19.29984,2.7075 14.91,4.9305 10.56216,7.23564706 C10.68816,7.30102941 10.94016,7.43514706 11.06616,7.50220588 C10.38072,7.80061765 9.62304,7.71847059 8.8956,7.72517647 C5.98752,7.66817647 3.07776,7.76205882 0.16968,7.70002941 C0.16632,6.45944118 0.168,5.21885294 0.168,3.97658824 C0.37632,3.42335294 0.95424,3.20205882 1.428,2.92711765 Z" id="Shape"></path>
                    <path d="M29.63016,0.388941176 C30.51888,0.0201176471 31.4916,0.179382353 32.424,0.171 C35.952,0.1425 39.47832,0.192794118 43.00632,0.162617647 C44.15712,0.160941176 45.31464,0.249794118 46.45704,0.0653823529 C48.35712,1.13832353 50.2572,2.20958824 52.1556,3.28420588 C52.54704,3.49544118 52.88976,3.89108824 52.83768,4.36217647 C52.84272,5.47702941 52.836,6.59188235 52.83768,7.70673529 C50.51592,7.68997059 48.19584,7.73188235 45.87408,7.71511765 C45.03408,7.695 44.15376,7.85761765 43.3608,7.49717647 C43.53048,7.40832353 43.70184,7.31611765 43.8732,7.22391176 C39.12048,4.95732353 34.3728,2.679 29.63016,0.388941176 Z" id="Shape"></path>
                </g>
                <g id="#130e397f" transform="translate(0.000000, 14.920588)"></g>
                <g id="#170b54ff" transform="translate(64.176000, 17.100000)" fill="#FFFFFF" fill-rule="nonzero" opacity="0.70069067">
                    <path d="M3.5028,2.8215 C5.59272,0.762794118 8.68224,-0.0704117647 11.56008,0.201176471 C14.00112,0.402352941 16.254,1.63958824 17.95584,3.36467647 C17.47368,4.04029412 16.7916,4.54658824 16.24392,5.17023529 C15.07632,4.01347059 13.59456,3.12661765 11.94984,2.88017647 C9.60288,2.47614706 7.00896,3.06626471 5.26176,4.73602941 C3.58344,6.30855882 2.7804,8.61705882 2.67288,10.8735882 C2.59056,13.2307059 3.20208,15.7135588 4.788,17.5191176 C6.79728,19.8276176 10.28664,20.5065882 13.12416,19.5157941 C14.33544,19.1017059 15.42912,18.3724412 16.3044,17.442 C16.92264,18.0421765 17.48544,18.6943235 18.0936,19.3062353 C16.50264,21.0497647 14.27328,22.2048529 11.92296,22.4747647 C8.946,22.8201176 5.71368,22.0908529 3.49608,19.9885588 C0.94248,17.6113235 -0.03528,13.9566176 0.168,10.5617647 C0.31416,7.70673529 1.38936,4.80811765 3.5028,2.8215 Z" id="Shape"></path>
                    <path d="M112.31136,0.150882353 C114.97752,-0.0653823529 117.8016,0.672264706 119.80416,2.49961765 C121.30776,3.83241176 122.32752,5.64467647 122.87352,7.56255882 C123.67152,10.3773529 123.55392,13.4436176 122.54424,16.1896765 C121.78824,18.2316176 120.41736,20.0841176 118.54584,21.2358529 C116.3316,22.5988235 113.58144,22.9240588 111.05136,22.4529706 C108.7968,22.0472647 106.69176,20.7915882 105.336,18.9407647 C103.72656,16.7948824 102.96384,14.0722941 103.02432,11.4067059 C102.95712,8.35385294 103.96848,5.18532353 106.13736,2.97908824 C107.74176,1.29423529 110.0064,0.336970588 112.31136,0.150882353 Z M112.24416,2.68570588 C110.46,2.87682353 108.74808,3.72344118 107.59728,5.10820588 C105.71904,7.33288235 105.26712,10.4326765 105.6636,13.2407647 C106.008,15.2994706 106.96224,17.3548235 108.66912,18.6322941 C110.00136,19.6683529 111.72,20.1176471 113.39328,20.0707059 C115.11192,20.0690294 116.85408,19.4822647 118.12584,18.3104118 C119.87976,16.7362059 120.708,14.3656765 120.8592,12.0638824 C120.9936,9.55085294 120.35856,6.89029412 118.66176,4.96905882 C117.09096,3.18194118 114.576,2.39064706 112.24416,2.68570588 Z" id="Shape"></path>
                    <path d="M23.39736,0.464382353 C26.18112,0.467735294 28.9632,0.466058824 31.74696,0.464382353 C33.2724,0.440911765 34.86672,0.633705882 36.1872,1.45685294 C37.8,2.41747059 38.82144,4.15261765 39.16752,5.96655882 C39.45816,7.99341176 39.24984,10.2197647 37.98144,11.9029412 C36.96336,13.2927353 35.27328,14.0471471 33.58488,14.1896471 C35.74704,16.8887647 37.98144,19.5292059 40.16544,22.2098824 C39.10872,22.2383824 38.05032,22.2149118 36.99192,22.2232941 C35.06496,19.8577941 33.17664,17.4621176 31.26816,15.0815294 C31.0548,14.8501765 30.91536,14.5199118 30.61128,14.3941765 C29.06232,14.3707059 27.51168,14.4092647 25.96272,14.3757353 C25.85856,16.9826471 25.94592,19.5996176 25.91904,22.2115588 C25.074,22.2333529 24.22728,22.2182647 23.38224,22.2232941 C23.38392,16.9876765 23.36376,11.7520588 23.39232,6.51644118 C24.21552,7.58770588 25.08576,8.62711765 25.87536,9.72185294 C25.98624,10.4578235 25.87704,11.2273235 25.9224,11.9750294 C28.08792,11.9716765 30.25512,11.9750294 32.42064,11.9733529 C33.8604,11.9767059 35.39928,11.3547353 36.12672,10.0537941 C37.23888,8.09232353 36.91968,5.29597059 35.12544,3.83408824 C34.37448,3.21714706 33.38664,2.92041176 32.42064,2.93382353 C30.25176,2.9355 28.08288,2.92879412 25.914,2.93717647 C25.914,4.53652941 25.92912,6.13588235 25.9056,7.73355882 C25.03872,6.69247059 24.19536,5.62288235 23.39568,4.52982353 C23.36544,3.17691176 23.37048,1.81897059 23.39736,0.464382353 Z" id="Shape"></path>
                    <path d="M42.50064,0.466058824 C43.47336,0.457676471 44.4444,0.482823529 45.41712,0.450970588 C45.75312,0.848294118 45.9732,1.32273529 46.24368,1.76364706 C47.7204,4.30182353 49.22232,6.82658824 50.68056,9.3765 C50.17992,10.1677941 49.74816,11.001 49.22232,11.7755294 C47.17944,8.47958824 45.19704,5.14676471 43.17768,1.83741176 C42.94584,1.38308824 42.53592,0.9975 42.50064,0.466058824 Z" id="Shape"></path>
                    <path d="M56.24976,2.82652941 C56.75376,2.04026471 57.15192,1.18358824 57.73488,0.450970588 C58.70592,0.482823529 59.67696,0.457676471 60.648,0.464382353 C60.62112,0.573352941 60.564,0.791294118 60.53712,0.898588235 C57.97008,5.07132353 55.36776,9.22561765 52.82592,13.4117647 C52.78392,16.3455882 52.82088,19.2827647 52.80744,22.2165882 C51.93552,22.2266471 51.06192,22.2266471 50.19,22.2165882 C50.18832,19.2224118 50.19,16.2299118 50.18832,13.2357353 C50.15304,12.9876176 50.27736,12.7763824 50.40504,12.5768824 C52.3572,9.32955882 54.2976,6.07385294 56.24976,2.82652941 Z" id="Shape"></path>
                    <path d="M64.29864,0.610235294 C64.33896,0.575029412 64.4196,0.504617647 64.45992,0.467735294 C67.10928,0.461029412 69.75696,0.467735294 72.40632,0.466058824 C73.98888,0.434205882 75.65712,0.573352941 77.0364,1.41997059 C78.86088,2.49123529 79.99152,4.49629412 80.26536,6.55835294 C80.64504,9.00097059 79.9596,11.6967353 78.1368,13.4335588 C76.93728,14.6070882 75.2472,15.1972059 73.584,15.2089412 C71.32608,15.2173235 69.06816,15.2055882 66.81192,15.2139706 C66.80688,17.5509706 66.8136,19.8862941 66.80856,22.2232941 C65.97024,22.2199412 65.13192,22.23 64.29528,22.2149118 C64.29528,17.1100588 64.30368,12.0052059 64.29192,6.90035294 C65.12688,6.81485294 65.96856,6.86011765 66.80688,6.87017647 C66.8136,8.80482353 66.81024,10.7394706 66.80856,12.6724412 C69.01272,12.6858529 71.2152,12.6791471 73.41936,12.6774706 C74.55,12.6841765 75.69744,12.2734412 76.48536,11.4486176 C78.35184,9.47876471 78.30816,6.00679412 76.34424,4.11908824 C75.6,3.43844118 74.59368,3.04782353 73.58568,3.05117647 C70.61208,3.03776471 67.6368,3.05452941 64.66488,3.04279412 C64.5708,3.02435294 64.38264,2.98747059 64.28856,2.96902941 C64.3104,2.18276471 64.2852,1.3965 64.29864,0.610235294 Z" id="Shape"></path>
                    <path d="M83.36832,2.91873529 C83.40024,2.09894118 83.3364,1.27579412 83.41032,0.457676471 C88.78632,0.472764706 94.16232,0.469411765 99.53832,0.459352941 C99.59376,1.28417647 99.56184,2.11067647 99.56016,2.93717647 C97.272,2.95058824 94.98216,2.89191176 92.69568,2.96567647 C92.70576,9.38488235 92.70072,15.8040882 92.69736,22.2249706 C91.8876,22.2249706 91.07952,22.2132353 90.27144,22.2316765 C90.07656,21.2576471 90.23112,20.2567941 90.25296,19.2743824 C90.15384,17.3799706 90.21264,15.4855588 90.25128,13.5894706 C90.15384,12.0756176 90.16224,10.5550588 90.22944,9.04288235 C90.0732,7.70673529 90.36384,6.36723529 90.18744,5.03276471 C90.09672,4.33032353 90.36048,3.61279412 90.16896,2.92544118 C87.90264,2.9355 85.63464,2.94555882 83.36832,2.91873529 Z" id="Shape"></path>
                    <path d="M128.77032,3.10985294 C128.77032,2.22132353 128.76024,1.33279412 128.77704,0.445941176 C131.15592,0.449294118 133.53312,0.447617647 135.912,0.445941176 C138.15144,0.432529412 140.45136,1.00420588 142.24728,2.38561765 C144.79416,4.30182353 146.0676,7.50891176 146.17848,10.6254706 C146.25576,13.3279412 145.64088,16.1377059 144.05496,18.3724412 C142.83864,20.1059118 140.98392,21.3766765 138.92088,21.8796176 C137.22912,22.3305882 135.4668,22.2082059 133.73808,22.2232941 C132.0816,22.2216176 130.42512,22.2232941 128.77032,22.2232941 C128.76696,17.6197059 128.77032,13.0177941 128.76864,8.41420588 C129.60528,8.40917647 130.44192,8.41085294 131.28024,8.41420588 C131.28696,12.1091471 131.26512,15.8040882 131.292,19.4973529 C132.94344,19.4923235 134.59656,19.4923235 136.24968,19.4973529 C137.94312,19.4554412 139.68192,18.9441176 140.95704,17.7907059 C142.52112,16.4260588 143.36616,14.3857941 143.57952,12.3539118 C143.84328,10.4846471 143.51904,8.52485294 142.6404,6.85005882 C141.80376,5.24567647 140.32368,3.97826471 138.58152,3.45855882 C137.06616,2.95058824 135.45504,3.14673529 133.88928,3.10985294 C132.1824,3.10985294 130.47552,3.10985294 128.77032,3.10985294 Z" id="Shape"></path>
                    <path d="M150.59184,2.97238235 C150.6036,2.13414706 150.55992,1.29591176 150.6204,0.459352941 C155.54784,0.462705882 160.47696,0.482823529 165.40608,0.449294118 C165.51864,1.28585294 165.4296,2.13247059 165.45816,2.97405882 C160.50216,2.97405882 155.54784,2.97741176 150.59184,2.97238235 Z" id="Shape"></path>
                    <path d="M184.51272,0.543176471 C185.48544,0.553235294 186.4632,0.494558824 187.43424,0.580058824 C185.1528,4.07717647 182.92176,7.60614706 180.62016,11.0898529 C180.9108,11.6615294 181.29552,12.1762059 181.63992,12.7160294 C183.70128,15.8661176 185.75256,19.0245882 187.824,22.1679706 L187.824,22.2132353 C186.84792,22.23 185.87184,22.2216176 184.89576,22.2216176 C182.91,19.2039706 180.98976,16.1410588 178.96032,13.1519118 C177.00312,16.1779412 175.0308,19.1939118 173.06856,22.2149118 C172.0908,22.2266471 171.11472,22.2283235 170.14032,22.2132353 C174.8964,14.9675294 179.72472,7.76708824 184.51272,0.543176471 Z" id="Shape"></path>
                    <path d="M170.52672,0.573352941 C171.528,0.513 172.536,0.526411765 173.54064,0.563294118 C174.95856,2.90867647 176.45544,5.20711765 177.88848,7.54411765 C177.43824,8.21302941 176.988,8.88026471 176.52936,9.54247059 C176.47224,9.53241176 176.35632,9.51397059 176.29752,9.50558824 C174.37224,6.52985294 172.45032,3.55076471 170.52672,0.573352941 Z" id="Shape"></path>
                    <path d="M150.59184,9.76879412 C155.1312,9.76544118 159.66888,9.77214706 164.20824,9.76544118 C164.22168,10.6103824 164.21496,11.4553235 164.2116,12.3002647 C159.67392,12.3036176 155.13624,12.2969118 150.59856,12.3036176 C150.58344,11.4586765 150.59352,10.6137353 150.59184,9.76879412 Z" id="Shape"></path>
                    <path d="M150.59016,19.6415294 C155.52936,19.6365 160.46856,19.6348235 165.40776,19.6415294 C165.40272,20.5015588 165.40608,21.3615882 165.40608,22.2216176 C160.46856,22.2232941 155.53104,22.2216176 150.59352,22.2232941 C150.58848,21.3615882 150.59184,20.5015588 150.59016,19.6415294 Z" id="Shape"></path>
                </g>
                <g id="#271d75ff" transform="translate(0.000000, 18.441176)" fill="#271D75" fill-rule="nonzero">
                    <path d="M11.06616,0.125735294 C14.1036,1.62282353 17.1276,3.15008824 20.16,4.65555882 C17.9172,5.92297059 15.58704,7.03279412 13.314,8.24823529 C8.93424,8.15602941 4.54776,8.20967647 0.16464,8.20967647 C0.16128,5.58097059 0.17304,2.95226471 0.16968,0.323558824 C3.07776,0.385588235 5.98752,0.291705882 8.8956,0.348705882 C9.62304,0.342 10.38072,0.424147059 11.06616,0.125735294 Z" id="Shape"></path>
                    <path d="M33.83184,4.86511765 C37.01376,3.29594118 40.1772,1.68988235 43.3608,0.120705882 C44.15376,0.481147059 45.03408,0.318529412 45.87408,0.338647059 C48.19584,0.355411765 50.51592,0.3135 52.83768,0.330264706 C52.836,2.95561765 52.84104,5.58097059 52.83768,8.20632353 C49.4508,8.16944118 46.06224,8.22476471 42.67368,8.18117647 C42.18816,8.17111765 41.7144,8.28679412 41.25408,8.42929412 C38.77944,7.24235294 36.30144,6.06211765 33.83184,4.86511765 Z" id="Shape"></path>
                </g>
                <g id="#2cbdb5ff" transform="translate(10.416000, 22.967647)" fill="#2CBDB5" fill-rule="nonzero">
                    <path d="M9.744,0.129088235 C12.09936,1.29423529 14.43288,2.49961765 16.80168,3.63626471 C19.0176,2.56164706 21.19992,1.41661765 23.41584,0.338647059 C25.88544,1.53564706 28.36344,2.71588235 30.83808,3.90282353 C31.69488,4.33702941 32.5752,4.72932353 33.42696,5.17526471 C32.09304,5.84585294 30.75576,6.50805882 29.42184,7.17864706 C27.18576,8.26835294 24.97488,9.41338235 22.73544,10.4980588 C22.70184,10.5148235 22.63632,10.5466765 22.60272,10.5617647 C20.94288,9.62964706 19.20744,8.83667647 17.4804,8.037 C17.03016,7.83247059 16.6068,7.54914706 16.12128,7.44352941 C15.5652,7.581 15.08472,7.91461765 14.58744,8.18452941 C13.26528,8.96241176 11.81544,9.50894118 10.52688,10.3438235 C10.49832,10.3304118 10.44288,10.3035882 10.41432,10.2901765 C9.10392,9.66820588 7.8204,8.99258824 6.51336,8.36223529 C4.39824,7.296 2.26968,6.25155882 0.15792,5.17861765 C1.0416,4.63879412 1.99416,4.22470588 2.898,3.72176471 C5.17104,2.50632353 7.5012,1.3965 9.744,0.129088235 Z" id="Shape"></path>
                </g>
                <g id="#282384ff" transform="translate(0.000000, 26.488235)" fill="#282384" fill-rule="nonzero">
                    <path d="M0.16464,0.162617647 C4.54776,0.162617647 8.93424,0.108970588 13.314,0.201176471 C12.41016,0.704117647 11.4576,1.11820588 10.57392,1.65802941 C12.68568,2.73097059 14.81424,3.77541176 16.92936,4.84164706 C16.12968,5.13167647 15.27288,5.03108824 14.44128,5.02605882 C9.68352,5.04114706 4.92744,5.03947059 0.16968,5.02941176 C0.16632,4.22302941 0.1764,3.41497059 0.15456,2.60858824 C0.17304,1.79382353 0.15792,0.979058824 0.16464,0.162617647 Z" id="Shape"></path>
                </g>
                <g id="#282282ff" transform="translate(39.816000, 26.488235)" fill="#282282" fill-rule="nonzero">
                    <path d="M1.43808,0.382235294 C1.8984,0.239735294 2.37216,0.124058824 2.85768,0.134117647 C6.24624,0.177705882 9.6348,0.122382353 13.02168,0.159264706 C13.02,1.39314706 13.02336,2.62535294 13.02168,3.85923529 C9.40968,3.88941176 5.79768,3.85588235 2.18568,3.87264706 C1.45992,3.87264706 0.70224,3.97491176 0.02184,3.65805882 C1.35576,2.98747059 2.69304,2.32526471 4.02696,1.65467647 C3.1752,1.20873529 2.29488,0.816441176 1.43808,0.382235294 Z" id="Shape"></path>
                </g>
                <g id="#1414497f" transform="translate(0.000000, 29.002941)"></g>
                <g id="#29278eff" transform="translate(33.096000, 30.008824)" fill="#29278E" fill-rule="nonzero">
                    <path d="M0.05544,3.45688235 C2.29488,2.37220588 4.50576,1.22717647 6.74184,0.137470588 C7.42224,0.454323529 8.17992,0.352058824 8.90568,0.352058824 C12.51768,0.335294118 16.12968,0.368823529 19.74168,0.338647059 C19.74,2.40070588 19.74504,4.46276471 19.74168,6.52482353 C16.41024,6.50973529 13.0788,6.52482353 9.74736,6.51979412 C8.76624,6.52817647 7.75152,6.39573529 6.80904,6.75114706 C5.22984,5.99338235 3.64392,5.24735294 2.06808,4.48120588 C1.39272,4.14758824 0.68544,3.87432353 0.05544,3.45688235 Z" id="Shape"></path>
                </g>
                <g id="#2dd8c0ff" transform="translate(20.832000, 30.344118)" fill="#2DD8C0" fill-rule="nonzero">
                    <path d="M4.17144,0.808058824 C4.66872,0.538147059 5.1492,0.204529412 5.70528,0.0670588235 C6.1908,0.172676471 6.61416,0.456 7.0644,0.660529412 C8.79144,1.46020588 10.52688,2.25317647 12.18672,3.18529412 C10.5,4.04867647 8.7948,4.87685294 7.10808,5.74023529 C6.76368,5.90117647 6.37392,6.156 6.00264,5.91458824 C4.03368,4.94223529 2.06976,3.95982353 0.11088,2.96735294 C1.39944,2.13247059 2.84928,1.58594118 4.17144,0.808058824 Z" id="Shape"></path>
                </g>
                <g id="#292890ff" transform="translate(0.000000, 31.182353)" fill="#292890" fill-rule="nonzero">
                    <path d="M16.92936,0.147529412 C18.2364,0.777882353 19.51992,1.4535 20.83032,2.07547059 C20.28264,2.49291176 19.64424,2.76282353 19.03776,3.07967647 C17.41992,3.91455882 15.81048,4.76117647 14.18928,5.58432353 C13.78104,5.45020588 13.36272,5.33620588 12.92928,5.34458824 C8.67552,5.36135294 4.42008,5.35464706 0.16632,5.358 C0.16464,3.68320588 0.17304,2.01008824 0.16968,0.335294118 C4.92744,0.345352941 9.68352,0.347029412 14.44128,0.331941176 C15.27288,0.336970588 16.12968,0.437558824 16.92936,0.147529412 Z" id="Shape"></path>
                </g>
                <g id="#2c8fb3ff" transform="translate(10.416000, 33.194118)" fill="#2C8FB3" fill-rule="nonzero">
                    <path d="M10.41432,0.0637058824 C10.44288,0.0771176471 10.49832,0.103941176 10.52688,0.117352941 C12.48576,1.10982353 14.44968,2.09223529 16.41864,3.06458824 C16.78992,3.306 17.17968,3.05117647 17.52408,2.89023529 C19.2108,2.02685294 20.916,1.19867647 22.60272,0.335294118 C22.63632,0.320205882 22.70184,0.288352941 22.73544,0.271588235 C23.36544,0.689029412 24.07272,0.962294118 24.74808,1.29591176 C26.32392,2.06205882 27.90984,2.80808824 29.48904,3.56585294 C30.54576,4.09561765 31.61592,4.60358824 32.68944,5.09982353 C32.92296,5.20544118 33.14136,5.34626471 33.3312,5.51894118 C32.45928,5.99170588 31.56216,6.41417647 30.67512,6.85844118 C28.41384,7.97832353 26.1576,9.10994118 23.90472,10.2465882 C21.51744,11.3882647 19.18056,12.6355588 16.78992,13.7688529 C14.3472,12.6422647 11.98176,11.3564118 9.55416,10.1996471 C7.31808,9.07641176 5.08704,7.94479412 2.83752,6.84670588 C1.94376,6.39070588 1.03824,5.9565 0.1512,5.48708824 C1.3356,4.80811765 2.57544,4.23141176 3.77328,3.57255882 C5.39448,2.74941176 7.00392,1.90279412 8.62176,1.06791176 C9.22824,0.751058824 9.86664,0.481147059 10.41432,0.0637058824 Z" id="Shape"></path>
                </g>
                <g id="#2a2c9bff" transform="translate(0.000000, 36.379412)" fill="#2A2C9B" fill-rule="nonzero">
                    <path d="M0.16632,0.160941176 C4.42008,0.157588235 8.67552,0.164294118 12.92928,0.147529412 C13.36272,0.139147059 13.78104,0.253147059 14.18928,0.387264706 C12.99144,1.04611765 11.7516,1.62282353 10.5672,2.30179412 C11.45424,2.77120588 12.35976,3.20541176 13.25352,3.66141176 C12.3396,3.99335294 11.36184,3.83576471 10.41432,3.8475 C6.9972,3.87264706 3.58008,3.86258824 0.16128,3.84582353 C0.16464,2.61697059 0.16464,1.38811765 0.16632,0.160941176 Z" id="Shape"></path>
                    <path d="M39.90504,0.380558824 C40.84752,0.0251470588 41.86224,0.157588235 42.84336,0.149205882 C46.1748,0.154235294 49.50624,0.139147059 52.83768,0.154235294 C52.836,1.38979412 52.84104,2.62535294 52.83768,3.86091176 C49.39368,3.84247059 45.94968,3.88270588 42.50568,3.84582353 C42.02856,3.85252941 41.55312,3.90952941 41.07936,3.96652941 C41.08272,3.89276471 41.08776,3.74523529 41.09112,3.67314706 C41.97816,3.22888235 42.87528,2.80641176 43.7472,2.33364706 C43.55736,2.16097059 43.33896,2.02014706 43.10544,1.91452941 C42.03192,1.41829412 40.96176,0.910323529 39.90504,0.380558824 Z" id="Shape"></path>
                </g>
                <g id="#2b31a6ff" transform="translate(0.000000, 39.900000)" fill="#2B31A6" fill-rule="nonzero">
                    <path d="M13.25352,0.140823529 C15.50304,1.23891176 17.73408,2.37052941 19.97016,3.49376471 C19.23096,3.80894118 18.4212,3.68823529 17.64336,3.69494118 C13.49712,3.71002941 9.35088,3.70164706 5.20464,3.69997059 C4.42176,3.70332353 3.61536,3.60273529 2.86608,3.88773529 C2.142,3.48035294 1.41456,3.08302941 0.69888,2.66223529 C0.3948,2.49961765 0.1932,2.20288235 0.14952,1.86255882 C0.17304,1.34955882 0.1596,0.836558824 0.16128,0.325235294 C3.58008,0.342 6.9972,0.352058824 10.41432,0.326911765 C11.36184,0.315176471 12.3396,0.472764706 13.25352,0.140823529 Z" id="Shape"></path>
                    <path d="M34.32072,3.54070588 C36.5736,2.40405882 38.82984,1.27244118 41.09112,0.152558824 C41.08776,0.224647059 41.08272,0.372176471 41.07936,0.445941176 C41.55312,0.388941176 42.02856,0.331941176 42.50568,0.325235294 C45.94968,0.362117647 49.39368,0.321882353 52.83768,0.340323529 C52.75536,1.06623529 53.09976,2.00338235 52.43448,2.53314706 C51.6768,3.04614706 50.8452,3.44347059 50.05728,3.90617647 C49.42224,3.61279412 48.71664,3.68152941 48.0396,3.69661765 C43.78584,3.70667647 39.5304,3.68655882 35.27664,3.70667647 C34.9524,3.68991176 34.63488,3.61447059 34.32072,3.54070588 Z" id="Shape"></path>
                </g>
                <g id="#2b36b1ff" transform="translate(2.856000, 43.252941)" fill="#2B36B1" fill-rule="nonzero">
                    <path d="M17.11416,0.140823529 C19.54176,1.29758824 21.9072,2.58344118 24.34992,3.71002941 C26.74056,2.57673529 29.07744,1.32944118 31.46472,0.187764706 C31.77888,0.261529412 32.0964,0.336970588 32.42064,0.353735294 C36.6744,0.333617647 40.92984,0.353735294 45.1836,0.343676471 C45.86064,0.328588235 46.56624,0.259852941 47.20128,0.553235294 C43.92696,2.40908824 40.65096,4.26326471 37.37328,6.11241176 C36.28968,5.97997059 35.19768,6.01517647 34.10736,6.01685294 C27.38736,6.00511765 20.66736,6.04032353 13.94736,6.01517647 C12.58152,6.03697059 11.21232,5.95314706 9.84984,6.10235294 C6.5688,4.24817647 3.28776,2.39567647 0.01008,0.534794118 C0.75936,0.249794118 1.56576,0.350382353 2.34864,0.347029412 C6.49488,0.348705882 10.64112,0.357088235 14.78736,0.342 C15.5652,0.335294118 16.37496,0.456 17.11416,0.140823529 Z" id="Shape"></path>
                </g>
                <g id="#1e40a6ff" transform="translate(12.600000, 49.120588)" fill="#1E40A6" fill-rule="nonzero">
                    <path d="M0.10584,0.234705882 C1.46832,0.0855 2.83752,0.169323529 4.20336,0.147529412 C10.92336,0.172676471 17.64336,0.137470588 24.36336,0.149205882 C25.45368,0.147529412 26.54568,0.112323529 27.62928,0.244764706 C25.956,1.19364706 24.28104,2.13917647 22.6044,3.08470588 C21.85344,2.97070588 21.09408,2.96064706 20.3364,2.97908824 C16.0776,2.99082353 11.81712,2.97405882 7.55832,2.98579412 C6.75192,2.96735294 5.94384,2.96902941 5.14416,3.07967647 C3.46416,2.13247059 1.78416,1.18526471 0.10584,0.234705882 Z" id="Shape"></path>
                </g>
                <g id="#134699ff" transform="translate(17.640000, 51.970588)" fill="#134699" fill-rule="nonzero">
                    <path d="M0.10416,0.229676471 C0.90384,0.119029412 1.71192,0.117352941 2.51832,0.135794118 C6.77712,0.124058824 11.0376,0.140823529 15.2964,0.129088235 C16.05408,0.110647059 16.81344,0.120705882 17.5644,0.234705882 C16.77816,0.685676471 15.98688,1.12994118 15.19728,1.57420588 C13.15776,1.43338235 11.11152,1.5675 9.06864,1.50211765 C6.86784,1.52558824 4.662,1.46355882 2.46288,1.56582353 C1.67664,1.12155882 0.88872,0.678970588 0.10416,0.229676471 Z" id="Shape"></path>
                </g>
                <g id="#0c4b91ff" transform="translate(19.992000, 53.311765)" fill="#0C4B91" fill-rule="nonzero">
                    <path d="M0.11088,0.224647059 C2.31,0.122382353 4.51584,0.184411765 6.71664,0.160941176 C8.75952,0.226323529 10.80576,0.0922058824 12.84528,0.233029412 C11.95152,0.741 11.0544,1.24561765 10.15896,1.75191176 C8.904,1.59097059 7.63896,1.71 6.37896,1.67647059 C5.18112,1.69658824 3.97992,1.61276471 2.78712,1.73682353 C1.89504,1.23220588 1.00128,0.730941176 0.11088,0.224647059 Z" id="Shape"></path>
                </g>
                <g id="#054f89ff" transform="translate(22.680000, 54.820588)" fill="#054F89" fill-rule="nonzero">
                    <path d="M0.09912,0.228 C1.29192,0.103941176 2.49312,0.187764706 3.69096,0.167647059 C4.95096,0.201176471 6.216,0.0821470588 7.47096,0.243088235 C6.46632,0.813088235 5.45832,1.37638235 4.45704,1.95141176 C4.05552,2.20791176 3.50784,2.19282353 3.10968,1.93632353 C2.1084,1.36129412 1.1004,0.799676471 0.09912,0.228 Z" id="Shape"></path>
                </g>
            </g>
        </g>
    </g>
</svg>