<svg xmlns="http://www.w3.org/2000/svg" viewBox="0 0 133.721 133.922"><linearGradient id="logo--a" gradientUnits="userSpaceOnUse" x1="67.108" y1="67.076" x2="67.108" y2="5.183"><stop offset="0" stop-color="#bbcbee"></stop><stop offset=".158" stop-color="#b1c4eb"></stop><stop offset=".692" stop-color="#94b1e5"></stop><stop offset="1" stop-color="#8aa9e2"></stop></linearGradient><path fill-rule="evenodd" clip-rule="evenodd" fill="url(#logo--a)" d="M5.302 5.183h123.612v61.893H5.302z"></path><path d="M19.272 66.139l.048-9.603.384-.122c.045-.014.111-.057.181-.101.108-.069.241-.153.407-.21.096-.044.197-.082.298-.12.11-.041.221-.082.32-.136.441-.281.916-.336 1.419-.395l.128-.015a1.395 1.395 0 0 1 .376-.149l.16-.052c.048-.016.12-.04.141-.053 0 0 .51-.225.643-.275.153-.056.306-.112.467-.158l.059-.046c.118-.093.236-.185.361-.268.152-.121.354-.192.516-.249.047-.017.523-.346.59-.373.129-.053.276-.113.459-.149.011-.007.073-.042.137-.075.116-.06.233-.118.364-.16.109-.028.187-.067.277-.112.074-.037.149-.073.226-.105.116-.113.361-.175.598-.32.094-.057.25-.105.356-.171l.202-.114.513-.164c.093-.023.189-.045.284-.066.196-.044.381-.085.527-.145.138-.047.231-.096.325-.143.166-.084.201-.096.481-.212.171-.092.403-.182.526-.231.073-.042.149-.079.227-.116.049-.023.099-.046.145-.073l.132-.056c.107-.03.204-.074.301-.117.149-.065.224-.119.392-.164.115-.099.237-.192.358-.284l.228-.156c.197-.117.42-.25.703-.333l.141-.022c.503-.012.922.078 1.292.16.387.085.724.158 1.144.128l.157.024.176.034c.17.069.424.071.589.059.186-.054.272-.083.459-.17l.17-.084c.061-.038.149-.093.264-.134.122-.114.316-.284.624-.329.208-.068.421-.099.628-.129.127-.019.254-.036.372-.065.356-.064.792-.212.874-.22.149-.034.283-.114.38-.172.127-.076.448-.26.586-.31.102-.069.222-.13.349-.167l.133-.07.247-.139.427-.053c.078.013.328-.064.456-.118.143-.06.176-.098.319-.13.204-.058.417-.171.644-.291l.129-.068c.14-.108.273-.225.406-.341.193-.168.391-.342.615-.501.146-.16.315-.254.443-.326.02-.011.36-.291.407-.33.04-.033.188-.176.234-.221.226-.222.461-.42.698-.619.13-.109.261-.219.39-.334.055-.062.427-.419.556-.498.141-.15.294-.259.432-.358l.14-.102c.21-.148.392-.292.574-.437.187-.149.273-.228.392-.373.016-.02.377-.428.517-.555.247-.262.322-.347.461-.448.034-.024.068-.048.101-.074.099-.115.274-.223.271-.218.042-.062.373-.297.426-.313l.199-.141.218-.142.422-.414c.11-.123.218-.242.333-.354l.168-.191c.069-.065.149-.146.206-.169.103-.078.207-.11.344-.157.368-.081.771-.167.771-.167l.126-.013c.142-.015.267-.051.393-.086.119-.032.237-.064.362-.087.164-.047.457-.06.626-.096l.132-.013c.2-.051.465-.352.501-.382.039-.033.192-.22.229-.256.246-.218.477-.519 1.773-1.639.289-.25.614-.531.708-.621l.233-.18a.843.843 0 0 1 .216-.152c.088-.074.592-.365.592-.365.102-.081.3-.184.3-.184.081-.09.321-.299.373-.316l.226-.201c.056-.044.195-.211.256-.249a1.97 1.97 0 0 0 .299-.28l.179-.147c.086-.044.357-.228.517-.285l.34-.063.246-.086c.149-.031.23-.1.389-.154.192-.066.283-.142.514-.184 0 0 .267-.03.343.013s.19.088.263.124c.082.041.134.044.166.065.296.206.46.25.591.376.022.021.145.089.167.107.262.167.43.278.644.425.075.051.111.061.158.092.07.035.286.021.447.037.161-.012.099-.014.266-.017.107-.002.215-.003.321-.007l.246-.013c.256-.014.52-.03.742-.014l.25.08c.116.07.356.124.469.198.299.194.638.413.954.525l.106.051c.074.045.154.082.234.12.124.058.205.098.339.187.103.041.226.069.307.116.116.067.446.154.446.154.008-.004.209-.039.264-.066.023-.019.155-.078.237-.119.061-.031.232-.096.232-.096.425-.268.658-.394 1.109-.389.179-.005.444.15.444.15.087.044.167.086.241.14.064.046.533.295.556.313 0 0 .461.364.559.396l.576.491c1.298 1.113 2.192 1.785 2.397 1.917-.008-.005.331.144.394.187.059.035.088.039.115.045.088.019.608.316.608.316.077.043.153.083.229.123.236.124.479.254.716.437 0 0 .107.091.126.102.101.06.172.115.374.324.078.068.139.138.191.198.03.034.257.201.257.201.032.025.147.062.222.086.131.042.26.086.376.147l.451.271c.146.087.278.188.37.258.033.026.385.253.385.253.196.13.4.221.64.287l.385.199c.053.057.174.112.224.171.079.092.16.181.302.399.049.038.261.281.288.303l.184.184c.027.019.053.04.076.063.101.048.258.074.387.119.185.063.371.086.565.194.278.096.513.18.686.241.08.028.507.201.595.218l.167.061c.192.109.821.278 1.014.378.193.101.442.217.623.33.211.132.549.488.637.558l.166.127c.085.079.215.204.38.293.11.058.292.142.292.142l.305.124c.12.079.37.133.541.203.254.103.406.122.632.23.085.04.169.082.252.126l.693.243c.292.142.588.263.843.409.1.057.264.105.264.105l.316.105c.24.076.441.209.791.316.142.044.288.092.437.145.238.084.386.087.632.182.234.09.566.191.799.279.272.102.537.104.793.185.122.039.311.107.543.155.316.066.613.183.659.192.198.04.369.066.791.198.132.041.399.117.536.162.228.091.465.144.717.2.124.027.248.055.369.086l.233.055.369.132c.105.072.542.122 1.002.249.103.041 1.156.328 1.252.376.121.06.225.112.33.137.194.061.576.161.673.191.155.027.356.106.512.169.089.036.618.134.715.161.181.136.571.204.633.226.194.068.559.235.955.334.117.075.305.091.571.176l.238.104c.207.058.358.099.553.171.171.063.57.214.751.264 0 0 .817.205.889.229l.494.18c.334.151 1.238.466 1.225.461.167.09.034 11.81.034 11.81l-92.914.238z" fill="#636e9c"></path><path d="M71.437 52.757a7.062 7.062 0 0 0-.514-.367s-.159-.134-.222-.182a6.746 6.746 0 0 1-.485-.44c-.009-.01-.469-.395-.542-.468a95.34 95.34 0 0 0-.282-.283c-.001-.021-.136-.13-.167-.205-.016-.043-.297-.299-.35-.369-.067-.09-.282-.353-.282-.353.007-.042-.158-.231-.16-.311-.01-.25.101-.384.178-.478.176-.215.525.235.627.273.033.013.277.317.299.345.053.057.111.089.167.159.05.064.141.183.287.326.093.09.295.27.385.363.125.123.34.275.476.39.125.106.226.212.345.326.117.073.244.177.362.298.107.035.159.124.195.186 0 0 .189.178.181.286l.005.152c-.031.218-.188.632-.503.352zm17.05 2.491a1.448 1.448 0 0 1-.54-.059c-.102-.033-.262-.049-.389-.102-.146-.061-.283-.119-.441-.141 0 0-.279-.111-.411-.15-.156-.046-.036.038-.177-.049a12.669 12.669 0 0 1-.82-.302s-.177-.09-.259-.126c-.096-.042-.381-.206-.441-.231-.114-.048-.484-.291-.555-.333a7.232 7.232 0 0 1-.371-.227 1.957 1.957 0 0 1-.373-.292c-.101-.112-.126-.64-.066-.67.025-.013.221-.108.279-.07.059.038.181.09.301.142.103.045.381.219.48.264.118.055.799.367.828.383.182.105.265.131.446.219.136.066.272.13.406.192l-.024-.011c.187.109.668.267.764.303.134.05.382.175.521.201.113.021.215.084.325.121.075.036.293.091.357.113.08.028.242.113.242.113.146.113.178.21.187.327.003.041.007.11.004.19.001.163-.106.247-.273.195z" fill="#fff"></path><path d="M7.123 44.304c.143.373.288.64.471.899.255.345.618.477.57 1.145-.079.257.573.593.799.902.143.193.099.668.023.905-.067.282-.265.398-.241.56.135.214 1.175.151 1.467.052.151-.131.337-.144.386-.516-.014-.656.341-.513.512-.768.052-.136.245-.306.217-.502.11-.25.254-.731.399-.563.096.048.12.217.201.387.05.125.329.472.378.542.122.165.058.42-.033.651-.107.27.604.402.631.853.027.458-.522.409.242.95.13.104.316.158.494.165.093.003.549-.194.72-.175.141.007.349.045.551.063.273.025.265-.066.349-.105.085-.04.229-.139.356-.198.115-.088.166-.122.249-.277.04-.079.047-.217.067-.336-.099-.455.011-.495.223-.74.232-.297.172-.817.434-1.091.221-.156.291.198.35.371.079.087.164.41.208.484.059.158.168.241.427.367.368.207.078.827.295 1.044.101.157.462.247.632.455.224.227.026.488.204.764.039.078.062.148.096.202.035.057.333.325.459.334.289.021.691-.187.944.15.216.288.538.893.836 1.012.058.036.137.049.201-.007l.253-.629c.053-.514.605-.871.659-1.041.204-.85.116-1.068.302-1.004.157.014.149.069.359.46.222.412.162.854.188 1.066.026.214.082.379.206.544.137.184.15.216.374.44.224.303.104.762.121 1.193-.021.173.019.252.164.411.132.132.316.264.466.278.483-.036.349-.302.791-.518.203-.193.488-.296.567-.6.231-.366.403-.044.474.079.192.329.165.56.245.76.137.195.369.395.501.896.053.369.922.87 1.159.839.527-.285.12-1.131.794-1.203.678-.352.519-.721.798-1.364.221-.423.321-.191.45.16.031.229.119.435.211.871.285.444.606.658.406 1.395-.025.439.511.387.514 1.046 0 .072.898.339 1.19.162.185-.224.192-.45.107-.814-.066-.181.128-.394.32-.494.086-.084.084-.392.114-.597.018-.197.218-.489.343-.51.196-.058.169.614.622 1.137.114.215.133.406.092.701-.018.094.102.292.286.48.292.299-.013.918.903.791.405.01.599-.097.936-.183.468-.346.818-.893.946-1.497.308-.485.468.196.619.365.13.146.305.198.368.423.193.313.062.678.451.672.16.017.28-.03.377-.098.148-.102.243-.25.345-.287.126-.046.261.061.5.395.121.17.27.398.458.695.18.41.287.518.355.533.082.079.083.086.277.21.306.084.523.207.817-.021.211-.085.317-.202.458-.389.137-.326.217-.674.488-.919.183-.165.285-.54.379-.776.149-.243.283-.238.474.166.059.198.119.277.237.494.085.158-.009.64.079.731.325.374.589.385.712.632.127.185.238.347.277.672.122.695.474.909.632 1.041.172.058.455-.096.712 0 .3.112 1.146.501 1.215.07.105-.394.208-.835.452-1.204.266-.166.231-.219.485-.395.532-.519.419-.989.735-1.477.193-.144.21-.046.403.243.045.128.096.193.189.417.343.422.232.783.237 1.067.041.503.394.642.527 1.067.033.232.05.484.019.68-.009.053.034.242.008.453.046.067.078.289.12.36.113.187.22.379.365.539.3.151.463.301.827.178.179-.039.257-.335.269-.49.02-.751.413-.714.54-1.076.077-.467.33-.938.428-1.253.081-.156.193-.156.337-.008.153.402.111.382.14.877.064.112.113.238.213.32.446.366.062.89.169 1.156.348.637.607.701.743.953.158.385.251.673.434 1.037.109.071.22-.065.326-.238.16-.26.377-.529.473-.553.181-.032.145.198.422.532.16.193.163.402.202.561.039.158.128.16.414.252a.547.547 0 0 0 .318-.206c.147-.195.175-.481.256-.726.219-.289.438-.633.366-1.09a2.957 2.957 0 0 1 .047-.867c.014-.278.152-.497.241-.657.128-.177.178-.293.248-.345.203-.477.358-.472.476-.261.079.25.114.497.171.791.129.273.138.468.279.82.03.074.052.11.172.23.118.14.214.26.26.465.076.215.007.625.02.7.016.092.004.319.111.543.032.102.189.215.296.316.248.142.351.203.643.307.368-.018 1.648 1.945 1.879 1.822.482.044 1.137-1.195 1.423-.791.408-.033 2.646 2.421 2.846 2.293.542.04 3.965 1.146 4.132 1.213L5.19 83.542s-.051-39.204-.016-39.225l1.949-.013z" fill-rule="evenodd" clip-rule="evenodd" fill="#4f5858"></path><path d="M89.21 52.595c.123-.026.279-.089.409-.086.218.006.249-.052.38-.079l.268-.055c.096-.019.202-.018.288-.058.081-.037.173-.034.259-.05l.157-.03.26-.047c.424-.074.772-.122.917-.108.183.018.371.044.563.077.212.036.428.081.647.13l.268.062.392.096c.208.052.355.121.561.173.253.064.598.049.843.105.268.061.497.176.747.215.383.06.754.164 1.125.266.454.126.908.25 1.381.293.174.016.351.038.515.093l3.743 1.338c.424.133 1.221.578 1.557.599.537.032 1.539-.044 1.758-.013.335.048.649.051.944.077 0 0 .687-.067.852-.015.379.031.737-.074 1.09.025.11-.011.197.002.357.009.089-.01.263-.029.272-.035.126-.088.48-.617.2-.829-.562-.099-.593-.264-1.111-.35-.203-.054-.391-.125-.593-.179-.074.003-.299-.116-.593-.179-.564-.345-1.52-.495-2.194-.708-.316-.131-1.067-.297-1.372-.442-.312-.149-.708-.151-1.028-.29-.128 0-.843-.237-1.067-.29-.277-.092-.422-.119-.672-.184-.408-.119-.74-.274-1.294-.379-.367-.118-.472-.121-.712-.184-.407-.043-1.648-.414-1.895-.438-.659-.25-.976-.216-1.568-.461-.562-.145-.962-.25-1.607-.395-.356-.119-.58-.185-.83-.287-.211-.082-.276-.108-.415-.143-.316-.081-.565-.152-.771-.287-.573-.377-2.039-.947-2.135-1.04-.146-.062-.24-.085-.356-.143-.132-.041-.195-.1-.712-.251-.356-.141-.58-.326-.712-.43-.178-.215-.378-.404-.563-.61a1.904 1.904 0 0 0-.65-.34 16.248 16.248 0 0 1-.951-.413 4.162 4.162 0 0 1-.326-.143c-.254-.051-1.183-.403-1.453-.466-.256-.06-.72-.169-.893-.295-.145-.04-.149-.128-.224-.184a17.689 17.689 0 0 0-.513-.633c-.077-.121-.214-.171-.296-.287-.023-.008-.47-.185-.682-.251-.217-.203-.458-.378-.682-.574-.177-.096-.354-.225-.504-.287a7.385 7.385 0 0 1-.326-.143c-.356-.118-.528-.21-.649-.3-.308-.274-.46-.476-.745-.776-.254-.188-.473-.374-.861-.491-.208-.121-.363-.15-.593-.329-.376-.23-.696-.451-.883-.567-.538-.451-1.717-1.406-1.794-1.546-.156-.082-.47-.359-.591-.477a3.596 3.596 0 0 1-.503-.406c-.261-.148-.377-.256-.538-.398-.116-.108-.43-.267-.548-.267-.079.013-.145.041-.258.059-.186.065-.218.163-.413.217-.091.068-.302.184-.404.244-.3.138-.309.21-.49.273-.096.024-.523-.032-.708-.137-.332-.121-.389-.24-.714-.369-.113-.125-.336-.137-.458-.25-.171-.064-.237-.158-.467-.225-.179-.143-.353-.256-.495-.354-.137-.114-.244-.123-.407-.205-.115-.07-.415-.002-.601-.028-.272.109-.718.009-.995.112-.372.074-.571.05-.717 0-.147-.074-.261-.188-.416-.252-.021-.049-.233-.141-.314-.25-.103-.034-.581-.444-.773-.541-.111-.034-.27-.152-.374-.194-.166-.054-.583.134-1.107.29-.038.004-.121.062-.162.078a3.24 3.24 0 0 0-.708.581c-.374.317-.479.381-.773.679-.196.145-.426.25-.625.392-.091.086-1.106.875-1.212.998-.198.158-1.186 1.173-1.36 1.321-.156.168-.299.301-.353.366-.105.124-.252.243-.356.369-.134.113-.232.285-.384.376-.156.164-.433.335-.63.362-.281.066-.326.057-.698.158-.83.25-1.298.228-1.844.556-.337.394-.675.785-1.097 1.076-.139.035-.187.18-.326.215-.093.09-.463.393-.623.466-.036.045-.093.059-.156.138-.039.033-.032.059-.111.149-.079.119-.106.302-.178.43-.472.577-1.185.862-1.69 1.399-.17.081-.25.271-.415.359-.147.109-.234.291-.385.394-.101.164-.269.248-.385.395-.14.101-.322.331-.169.432.237.054.487-.05.759-.073.203-.085.425-.157.625-.309.21-.045.408-.222.591-.3.49-.161.569-.404.922-.538.236-.095.374-.15.596-.233.194-.111.329-.268.526-.526.072-.117.31-.35.349-.506.156-.228.205-.308.297-.387.408-.158.586-.225 1.037-.397.291-.03.718-.277.992-.328.264-.086.454-.237.619-.25.166-.013.535.111.61.211.145.237-.5.598-.583.632a2.927 2.927 0 0 1-.426.282c-.161.073-.278.194-.426.282-.13.133-.115.153-.082.32.056.208.337.215.516.188.426.047.347-.032.796-.027.455-.04.527-.112.992-.306.411-.125.77-.483 1.124-.676.312-.26.525-.513.8-.753.307-.202.548-.485.83-.717.524-.525 1.023-1.082 1.571-1.578.378-.242.734-.474.83-.538.07-.047.288-.196.523-.323.171-.093.38-.217.525-.234.148-.018.169.136.213.234.016.136.045.293.053.356 0 .158-.053.25-.053.25-.038.097-.176.225-.316.369-.051.082-.145.145-.213.214-.183.13-.232.234-.379.354-.121.098-.351.34-.422.421-.096.129-.285.241-.348.332-.192.155-.244.234-.474.43-.3.306-.618.591-.919.897a6.502 6.502 0 0 1-.889.933c-.301.305-.631.576-.949.861-.417.2-.748.506-1.097.789-.392.243-.644.38-1.081.568-.213.245-.667.474-.935.652-.282.16-.456.296-.884.495-.128.133-.319.174-.48.33-.1.092-.193.19-.482.342-.238.203-.418.328-.615.483-.297.224-.568.418-.771.395-.248.005-1.491-.07-1.805-.144-.119-.02-.225.075-.267.072-.297.167-.61.314-.949.43a5.362 5.362 0 0 1-.949.466c-.295.205-.54.471-.919.574-.112-.067-.54-.029-.583-.179-.438-.634.957-1.004.88-1.829-.242-.397-.261-.456-1.172-.012-.298.18-.673.321-1.051.478-.387.094-.709.267-1.097.359-.887.003-.771-.263-1.53-.068-.367.303-1.656.719-2.167.848l-1.178.141c-.409.253-.562.263-.93.518-.126.087-.29.207-.394.249-.238.116-.518.23-.528.234-.041.02-.236.218-.236.218-.284.146-.408.209-.653.404 0 .036-.327.184-.256.263.021.079.124.132.226.158.506.209.655.096.948-.075.176-.027.333-.122.504-.179.174-.059 1.205-.429 1.449-.488.06-.015.481-.141.623-.179a9.752 9.752 0 0 1 1.203-.316c.355.064.702.004 1.07.024.169-.07.321-.161.504-.215.536-.062.85-.339 1.263-.125.187.108.303.377.161.519-.613.55-.473.466-.709.554-.259.14-.374.241-.593.323-.087.074-.153.101-.296.179-.12.093-.331.172-.251.317.053.132.164.389.243.389.091.082.364.063.594-.014.28-.026.455-.096.671-.144.287-.036.455-.144.719-.192.311-.072.684-.18.982-.24.419-.091.335-.072.634-.179.42-.085.479-.144.809-.231.213-.149.61-.181.809-.347.263-.178.479-.209.638-.327.152-.113.173-.099.386-.155.104-.006.197.099.326.215.158.098.239.2.356.215.058.084.81-.168 1.127-.359.162-.09.317-.191.504-.251.133-.138.28-.114.504-.287.2-.185.268-.25.415-.359.169-.083.201-.237.536-.249.312.012.335.15.356.316.045.207.018.133.062.255.053.032.037.191.119.287.059.12.012.154.087.255.141.208.375.218.561.103.288-.165.573-.277.805-.511.329-.159.64-.411.944-.601.309-.194.583-.413.83-.682.324-.17.547-.462.86-.646.12-.13.252-.245.415-.323.296-.284.396-.149.474.072.012.135.023.158-.02.25-.049.106-.24.383-.247.395-.09.142-.13.246-.237.323-.185.228-.317.412-.652.825-.073.115-.191.295-.326.395-.091.114-.194.235-.296.43-.101.215-.171.268-.267.466-.122.177-.27.355-.119.538.056.099.369.157.538.18.235.03.37-.315.596-.531.177-.108.29-.295.445-.43.057-.086.655-.545.776-.566.637-.521.749-.768 1.213-1.498.134-.201.252-.497.346-.562.277-.167.532-.361.83-.502.041-.034.144-.09.184-.19.203-.281.316-.365.498-.671.276-.252.518-.544.83-.753.106-.158.225-.302.356-.43a.845.845 0 0 1 .213-.228c.097-.061.279-.109.25-.092.101-.001.255.085.328.105.19.112.235.216-.1.797-.063.074-.369.545-.51.751-.112.093-.197.262-.272.339-.268.395-.324.448-.457.825-.034.186.012.215-.017.408.052.248.246.412.119.789a3.747 3.747 0 0 1-.415.825c-.097.337-.198.275-.33.71.002.066.14.369.335.503.276.154.456.09.562.016.075-.086.235-.241.383-.404l.025-.024c.394-.388.506-.799.763-1.366.091-.118.22-.475.369-.618.161-.14.34-.258.504-.394.104-.185.184-.456.279-.652.072-.206.157-.381.278-.536.121-.259.216-.405.303-.569.054-.135.102-.277.185-.377.051-.061.1-.054.186-.072.087.007.473-.019.512.046.086.143.083.392.114.602.089.072.28.02.415.036.105-.012.241-.171.27-.268.024-.401-.011-.761-.04-1.225-.044-.49.201-.56.24-.996.019-.377-.001-.567-.016-.937-.013-.167.473-.313.559-.295.079 0 .39.306.471.423.095.1.195.195.267.323.118.128.485.538.587.63a2.4 2.4 0 0 1 .3.337c.08.092.083.119.203.191.168.168.096.144.264.264.144.144.168.144.24.24.216.12.284.299.383.359.058.074.31.298.378.359.128.141.522.532.689.609.119.155.353.321.474.461.173.14.307.298.479.373.062.081.634.507 1.087.758.259.119.299.198.474.287.128.144.4.266.544.39.29.236.685.426.987.646.331.186.545.417.92.549.312.166.512.159.591-.19.056-.314.008-.433-.357-.778-.165-.155-.284-.321-.442-.424-.084-.089-.496-.382-.545-.522-.195-.159-.357-.355-.576-.487-.069-.106-.183-.161-.258-.26a1.168 1.168 0 0 0-.287-.261c-.179-.177-.4-.306-.576-.487-.033-.055-.346-.362-.346-.362-.038-.056-.153-.158-.075-.299.063-.205 1.927.321 2.129.29.316.167.518.294.917.616.296.203.644.513.909.755.155.13.542.484.702.577.231.163.1-.004.444.34.213.138.348.257.458.458.105.22.046.405.188.668.095.119.299.399.39.456.137.168.305.3.445.466.228.234.459.491.682.681.081.069.114.102.246.18s.232.232.357.272c.192.187.332.317.52.507.092.102.259.222.403.342.078.055.202.151.252.17.138.117.276.077.381.035.202-.086.29-.25.195-.43-.145-.279-.104-.388-.274-.637-.096-.185-.086-.297-.192-.471-.123-.203-.249-.403-.368-.61a6.107 6.107 0 0 1-.246-.469c-.05-.15-.085-.184-.089-.323-.004-.138-.02-.26-.029-.393a2.131 2.131 0 0 1-.001-.289c.034-.186.092-.343.119-.538 0-.227.082-.439 0-.681a6.346 6.346 0 0 0-.334-.693c-.044-.083-.089-.263-.133-.347-.088-.168-.172-.243-.244-.431a1.215 1.215 0 0 1-.18-.356c-.05-.131-.099-.263-.175-.362-.058-.325-.273-.458-.267-.861.006-.399.293-.6.474-.502.1.118.235.128.348.288.126.147.267.281.383.344.196.222.34.312.592.552.158.132.337.225.445.309.113.091.145.135.356.251.174.125.385.257.582.349.419.193.637.44.709.457.492.313.161.16.652.474.336.138.718.335.731.652-.043.111-.006.216-.086.339-.037.058-.056.149-.089.215-.036.073-.036.18.017.295.071.189.108.241.25.315.306.084.398.19.622.229.343.171.514.198.801.308.719.249 1.184.347 1.674.523l.422.044z" fill-rule="evenodd" clip-rule="evenodd" fill="#fff"></path><path d="M58.351 41.211c-.385.337-.634.496-.874.718-.174.088-.294.261-.49.322-.066.076-.237.179-.237.179-.131.077-.175.121-.237.179-.08.124.002.348.059.394.101.137.228.139.444.018.171-.092.264-.179.382-.25.141-.085.29-.183.419-.27.123-.083.297-.216.424-.31.126-.093.181-.159.317-.228.144-.127.194-.172.208-.359.012-.158-.008-.277-.059-.359-.072-.067-.202-.133-.356-.034zm13.382 3.664c-.018.002.004.163.01.193.003.104.052.124.109.201.036.004.224.207.297.287.17.142.428.415.445.431.125.114.218.153.297.287.17.141.324.302.474.466.141.118.294.409.534.431.201.018.355-.467.181-.816-.14-.175-.232-.196-.409-.401-.111-.068-.046-.045-.157-.146-.107-.086-.188-.202-.297-.287-.199-.178-.409-.342-.593-.538-.175-.187-.378-.476-.593-.502-.15-.045-.227.11-.298.394zm15.763 4.8a2.247 2.247 0 0 0-.03.502.169.169 0 0 0 .089.108c.207.153.346.188.652.395.177.144.428.199.623.323.137.059.303.166.466.208.074.019.327.025.368-.009.143-.121.157-.545.026-.666a2.7 2.7 0 0 0-.682-.394c-.219-.141-.416-.227-.682-.394-.145-.077-.494-.321-.682-.215-.064.029-.128.022-.148.142z" fill-rule="evenodd" clip-rule="evenodd" fill="#636e9c"></path><path d="M34.344 69.407c.059-.237.269-.476.404-.571.249-.268.348-.177.512-.732.105-.211.184-.58.369-1.001.237-.264.354.103.395.264.075.267.039.167.111.399.058.271.36.455.396.739.092.424-.032.534.106.771.046.255.391.257.576.396l.31.225c.375.263.512.068.922-.094.245-.077.307-.156.449-.224.179-.195.229-.336.398-.54.076-.112.277-.217.338-.342.056-.131.215-.494.316-.58.105 0 .113.094.211.158.033.117.094.27.145.369.032.117.098.262.086.401.092.271.197.439.281.504a.51.51 0 0 0 .393.112c.159.01.234-.044.337-.112.084-.066.137-.145.225-.224.082-.199.252-.788.489-.577.132.053.364.529.522.689.139.16.275.41.505.392.239-.027.562-.316.843-.561.213-.586.341-.856.618-1.177.174-.24.174-.346.112-.504-.04-.267-.096-.368-.112-.448-.01-.394.411-1.03.49-1.317.358-.28.331.552.521.868.206.28.314.469.502.767.073.189.059.435.116.858.042.387.524.502.695 1.114.339.166.651.121 1.046.231.249-.036.134-.065.297-.188 0 0 .292-.3.257-.534-.028-.187.257-.435.632-.672.277-.217.02-.672.249-1.112.042-.081.118-.149.192-.227.153-.44.129-.261.37-.796.129-.187.256-.125.415.316.112.31.158.376.178 1.073.008.288.054.55.144.777l.158.211c.105.053.266-.088.366-.25.108-.171.058-.24.225-.393.178-.327.289-1.151.545-1.086.158 0 .25.329.41.47.262.202.117.703.46.795.426.092.784-.407 1.225-.459.256-.155.567-.384.562-.673-.058-.327-.057-.595.056-.728.574-.547.438-1.393.791-1.179.201.061.289.266.369.448.069.192.051.289.125.395.056.075.138.165.217.283.159.324.214.316.199.727-.077.419.284.353.545.447.57-.029.597-.6.899-.897.222-.531.618-.206 1.067.28.24.133.296-.077.44-.265l.166-.338c.032-.334.176-.58.188-.634.213-.24.36.238.527.079.046-.044.132-.158.184-.264.079-.29.264-.58.154-.863-.075-.35.11-.64.347-1.246.2-.385.494-.612.763.262.186.604.48.339.545 1.266l.081.208c.103.085.144.348.364.041s.188-.158.262-.337c.074-.179.297-.378.364-.563-.009-.234 0-.356-.02-.573-.158-.514.18-.59.455-.988.038-.205.201-.342.179-.607.143-.423.08-.817.337-1.009.122-.178.261.225.337.393.065.191.13.31.168.392.102.347.543.282.45.8.013.238-.07.569.012.703.173.257.068.273.277.494.217.333.335.757.27 1.048.085.609.388.548.631.397s.385-.285.383-.693c-.047-.263.04-.52.316-1.028.246-.224.418-.406.481-.609.032-.101.207-.385.211-.399.059-.119.119-.296.168-.538-.193-.929.176-1.324.24-1.875.191-.35.367.014.533.572.139.466.436.721.4 1.501-.048.23.134.373.181.616.145.243.279.518.435.969.012.036.074.418 0 .632-.016.185.322.796.585.717.305-.016.264-.056.416-.104.599-.308.264-1.001 1.08-1.306.238-.117.317-.354.325-.846-.113-.615.488-.764.58-.922.139-.124.201-.529.182-.485.038-.125.034-.325.2-.463.224-.093.452.569.519.764-.034.2.054.423.151.569l.218.242c.14.058.257-.11.413-.347.359-.957-.142-1.871.566-1.946.156-.184.168-.39.182-.584.043-.214.05-.395.198-.509.156-.12.215.403.319.582.073.356.021.417.108.7.134.721.738.441.586 1.637.035.17.071.442.233.552.204.21.721-.188.699-.625-.022-.267.084-.412.242-.544.105-.237.266-.291.395-.659.072-.237.032-.169.026-.264-.026-.29-.105-.712-.079-.87.059-.237.269-.476.404-.571.241-.426.408-.455.571-1.01.105-.211.184-.58.369-1.001.237-.264.354.103.395.264.156.289.197.478.269.71.058.271.103.497.074.687.092.424.072.553.211.791.053.29.188.414.422.58.135.179.216.631.221.916.006.168-.079.402.101.532.242.107.395.184.484.177.224-.119.366-.314.509-.509.093-.127.124-.316.135-.51-.057-.417.079-.817.456-1.335.295-.144-.034-.931.472-1.354.108-.187.146-.394.16-.701.051-.22.047-.144.124-.351.068-.135.214-.053.237 0 .095.142.042.166.153.299.159.341.248.306.26.566.007.468-.067.361-.018.604.029.14.087.384.192.464.16.268.273.303.308.703.033.376.36.451.401.401.146-.18.299-.435.58-.798.171-.411.332-.499.448-.738.29-.316.782.422.949.281.051-.043.07-.003.112-.056a3.62 3.62 0 0 1 .393-.392c.1-.123.1-.149.153-.307.069-.604.184-1.026.447-1.436.073-.152.149-.398.281-.392.052.047.083.008.168.168.075.139.081.406.243.734.392.33.246.637.337.841.225.152.368.233.635.182.178-.066.182-.194.229-.491-.04-.731.184-.738.626-1.634.174-.307.035-.517.083-.853.107-.229.214-.386.337-.673.093-.287.146-.419.146-.577.065-.159.117-.344.264-.422.2-.069.206.169.317.429.1.28.173.392.304.583.368.326.216.616.249 1.077-.007.329.02.329.296.555.172.196.356.328.409.46.132.29.079.791.184.949.692-.026.548-.526.988-.797.336-.277.921-.283.886-.806-.156-.506.3-.672.449-1.009.036-.207.058-.428.168-.561.017-.228.201-.571.386-.333.163.417.133.806.344 1.174.119.233.24.304.409.452.2.195.187.281.343.686.023.045.125.249.631-.137.282-.092.489-.106.613-.356.04-.099.09-.807.078-.925-.038-.4.159-.551.397-.894.105-.237.237-.178.277-.672.04-.329.119-.567.601-1.019.145-.066.171-.184.231-.456.054-.376.19-.67.393-.897.19-.195.208.316.281.504.065.197.214.365.313.622.057.235.098.374 0 .613.02.198.376.277.506.657.108.179.022.368.121.472.171.309.392.214.788.201.295-.098.309-.647.591-.758.146-.116.287-.19.281-.393.08-.175.025-.548.056-.616.019-.299.139-.289.258-.526.145-.154.277-.435.36-.707.033-.396.183-.723.288-1.048.232-.204.255.067.38.148.082.105.16.248.237.474.019.256 0 .369-.026.738.053.211.091.334.29.553.158.158.12.331.179.687.04.316.073.488.059.573.086.166.432.127.459-.008a.934.934 0 0 1 .444-.62c.322-.205.04-.703.127-1.056.072-.295.414-.412.554-.763.211-.369.329-.286.448-.053.045.088.134.178.15.293.106.243.043.504.29.501.349 0 .386.618.593.797.128.111.311.12.407-.063.177-.335.431-.587.391-.857.005-.426.081-.495.113-.86s.374-.615.374-.615c.249-.381.191-.83.345-1.174.21-.081.376.324.526.869.078.284-.014.508.223.917.19.327.295.643.348.953.006.033.114.209.178.237.176.078.175.063.258-.015.112-.107.187-.281.405-.468.125-.156.405-.281.493-.436.411-.406.595.419.886.688.274-.096.523-.315.679-.533.161-.465.113-.855.506-1.129l.212-.181c.133-.11.317-.318.374-.624.157-.317.233-.885.438-.953.241-.035.247.481.357.763.075.187.169.416.306.678 0 0 .179.107.358-.143.143-.226.37-.336.475-.158.079.237.394.566.499.751.153.186.265.344.474.553.153.265.929.217.908-.22-.011-.093.115-.36.206-.439.105-.132.189-.159.277-.327.089-.168.112-.618.032-.734-.067-.134.015-.348.012-.45.087-.163.11-.218.22-.296.176-.231.318-.465.413-.547.241-.426.238-.589.39-1.098.079-.361.153-.479.216-.871.319-.187.316.343.436.673.032.435.156.636.164.857.031.214.497.295.639.665.104.216.112.257.119.553-.035.361-.158 1.502.481 1.496.31-.053.725-.231 1.107-.29.171-.099.324-.241.377-.465.264-.606-.166-.971.098-1.485.264-.382.413-.187.578-.938.035-.173.043-.572.078-.745.004-.326.135-.497.25-.906.167-.378.351-.088.515.215.07.223.108.423.134.607.053.343.125.605.25.838l.288.346c.305.449-.009 1.04.199 1.135.133.223.412.316.565.826.058.676.295.719.69.571.764-.59.7-1.662 1.144-1.192l.042 79.884H5.04l-.019-48.05s.301-.483.648-.646c.161-.465-.14-.875.574-1.309-.015-.094.156-.278.182-.515.043-.214.115-.439.264-.553.165-.112.205.112.391.398.123.245.465.318.32.765.015.051.033.099.053.145 0 0 .309.407.526.377.271-.122.382-.404.562-.617.103-.084.045-.379.256-.695.075-.113.477-.404.474-.527.164-.513-.067-.894.211-1.212.237-.184.305-.306.395-.369.324-.282.464-.649.501-1.054.249-.357.549.078.689.401.093.363.093.521.224.785.092.424.343.395.553.949.105.211.105.784.026 1.001 0 .283.158.33.351.576 0 0 .077-.013.193-.015.15-.037.216.001.34-.062.201-.118.16-.262.225-.392-.012-.236.146-.344.225-.448.205-.048.358-.147.517-.241l.075-.17c-.154-1.147.492-1.574.711-2.239.052-.168.038-.302.09-.47.094-.359.229-.553.445-.891.117-.15.221.126.264.243.044.229.399 1.02.399 1.02.133.252.52.352.533.937-.022.268.019.414.045.678.232.544.615.484 1.449.455.593-.119.712-.277.929-.712.178-.534.654-.64.771-1.028.395-.751.377-1.131.569-1.674.161-.178.393.034.506.448.177.455.431.516.546.719.254.233.074.707.633.515.242-.058.399-.199.562-.336.197-.222.262-.521.327-.817.02-.088.054-.468.178-.81.116-.346.329-.53.394-.782.154-.368.034-.601.281-.673.293-.101.34.296.618.56.144.289.256.414.276.552.066.119-.009.281.152.501.096.176.249.104.472.124.465-.04.952-.243 1.011-.504-.099-1.023.441-.724.449-1.513.104-.294.307-.554.393-.897.243-.347.472.3.958.897.087.154.038.46.127.708.065.309.397.416.474.712.116.244.119.422.241.711.192.35.67.188 1.177.224.496-.196.647-.48.786-.757 0 0 .11-.59.257-.751s.268-.292.304-.416a5.47 5.47 0 0 1 .17-1.106c.354-.376.465.257.663.75.174.212.257.456.247.665a.705.705 0 0 0 .247.582c.119.04.134.103.362.137.234-.028.301-.075.449-.16.084-.048.075-.262.216-.527.183-.344.553-.461.695-1.127l.172-1.024z" fill-rule="evenodd" clip-rule="evenodd" fill="#183029"></path><path d="M133.721 133.922H0V0h133.721v133.922zM3.426 130.496h126.869V3.426H3.426v127.07z"></path><path d="M43.418 102.042h-.02c-.642-.025-1.052-.047-1.332-.149l-.101-.037s-.568-.16-.298-.539c.052-.072.132-.208.132-.208.297-.469.603-1.046.62-1.777v-2.894c0-.336 0-.679-.02-.909-.008-.092-.086-.218-.132-.218h-6.906c-.077 0-.167.007-.248.003-.228-.011-.231.119-.235.26v3.089c0 1.243 0 1.502.646 2.427 0 0-.006.004.061.088.42.523-.279.712-.279.712l-.103.023c-.382.085-.793.13-1.188.13-.772 0-1.382 0-1.999-.176l-.175-.05s-.511-.065-.231-.596c.067-.126.113-.165.113-.165.378-.551.492-.718.492-3.016v-7.65c0-1.591-.201-1.861-.485-2.068l-.204-.149c-.407-.297.064-.669.064-.669l.253-.103a4.77 4.77 0 0 1 1.8-.371c.358 0 1.012.043 1.557.312.047.023.092.048.137.074 0 0 .641.289.236.718-.101.107-.152.136-.152.136-.524.467-.544.608-.544 3.759v.702c0 .096.001.173.005.237.015.281.065.282.181.285h6.657c.117 0 .129.005.414-.007s.283-.221.283-.221v-2.557c0-1.054 0-1.583-.576-2.19 0 0-.042-.042-.097-.103-.368-.409.054-.646.054-.646l.199-.096a4.034 4.034 0 0 1 1.732-.404c.609 0 1.22.138 1.72.388l.138.069s.526.335.097.701l-.128.109c-.477.407-.477.958-.477 1.254v9.403c0 1.042.084 1.492.583 2.103 0 0 .04.036.098.121.36.522-.281.714-.281.714l-.137.024c-.707.127-1.41.127-1.924.127zm34.458.234c-.469 0-1.242-.071-2.255-.411l-.049-.017c-.107-.043-.621-.257-1.067-.445-.236-.1-.466-.197-.636-.271a3.91 3.91 0 0 1-.253-.116c-.796-.238-.796-.963-.796-1.495 0-1.185.276-1.76.843-1.76h.22l.333.334c1.046 1.173 2.035 2.281 3.661 2.281 1.35 0 2.746-.903 2.746-2.414 0-1.202-.726-1.748-2.826-3.148-2.204-1.482-3.416-2.298-3.416-4.402 0-1.731 1.174-3.594 3.75-3.594.815 0 1.258.103 1.818.234l.104.024.043.018c.066.026.327.085.499.124l.216.049c.477.018.965.226 1.055.657.058.155.073.333.073.478 0 .07 0 .291-.005.493-.003.13-.007.283-.037.426-.039.44-.153.803-.646.705-.033-.007-.105-.041-.146-.049-.126-.024-.336-.123-.937-.523-.597-.356-1.504-.737-2.096-.737-.77 0-1.42.525-1.42 1.146 0 .842 1.109 1.559 2.283 2.318l.069.045c2.41 1.575 3.988 2.793 3.988 5.284 0 2.717-2.2 4.766-5.116 4.766zm18.222-.234c-.395 0-.812-.047-1.314-.147l-.096-.019s-.687-.156-.321-.647c.047-.063.046-.092.046-.092.215-.431.334-1.011.334-1.635v-9.735c0-.121 0-.315-.01-.48-.005-.075-.014-.206-.186-.198s-1.829 0-1.829 0c-.407 0-1.647 0-2.359.43l-.051.031-.044.015-.059.028c-.159.075-.402.177-.559.177h-.086l-.082-.027c-.152 0-.219-.081-.324-.187l-.074-.156.003-.278.049-.148c.254-.762.787-2.041 1.499-2.041l.464.003c1.299.134 2.638.134 3.438.134l5.597-.019c.137 0 .587-.013.949-.023.308-.009.582-.016.653-.016.578 0 1.78 0 1.78.941 0 .212-.064.513-.83 1.65l-.02.03c-.261.373-.47.47-.844.47 0 0-.106.02-.24 0-.282-.042-.242-.34-.242-.34l-.026-.116c-.109-.495-.123-.558-2.095-.558 0 0-1.516-.008-1.668 0-.152.008-.142.212-.142.269v9.325c0 1.139.126 1.772.481 2.417 0 0 .021.052.051.093.411.576-.296.658-.296.658l-.108.023a6.692 6.692 0 0 1-1.439.168zm-78.2 17.656l-.144-.016c-.123-.061-.221-.22-.255-.321l-.598-1.275-2.782-6.573c-.469-1.046-.508-1.131-.841-1.527 0 0 .005-.005-.031-.037-.282-.254.037-.447.037-.447l.054-.041c.38-.285.85-.318 1.171-.318.317 0 .574.019.871.113l.094.043s.354.147.203.375l-.062.097c-.02.071.006.171.006.212 0 .147.148.602.438 1.352l1.766 4.196c.112.267.221.499.308.693.059.132.149-.023.149-.023l2.294-5.107c.209-.466.335-.747.335-1.002 0-.097.003-.186-.044-.279-.114-.23.107-.356.107-.356.217-.199.555-.267.857-.267.171 0 .556.006.891.278l.072.058s.176.13-.072.399c-.043.047-.042.049-.042.049-.341.401-.558.909-.77 1.438l-1.312 2.953-2.183 4.782-.089.179-.005.01c-.042.08-.109.212-.208.281a.353.353 0 0 1-.215.081zm15.224-.09c-.176 0-.347-.002-.516-.005l-3.56-.028s-.069-.012-.093-.012c-.152 0-.31-.017-.4-.032 0 0-.542-.104-.244-.559l.034-.052c.408-.629.478-.959.478-1.6v-6.411c0-.501-.072-.588-.452-.968l-.04-.04c-.374-.376.079-.528.079-.528l.103-.034c.342-.114.838-.25 1.258-.25.164 0 .374.008.585.068h3.131c.698 0 1.03.138 1.03.921 0 .256-.038.488-.116.707l-.014.039s-.17.627-.485.203c-.095-.128-.109-.116-.109-.116-.284-.305-.869-.385-1.093-.375h-.017s-1.893-.007-1.961 0c-.068.007-.058.063-.058.063v2.364a2 2 0 0 0 .003.123c.002.04.061.093.098.097.146.015.394.015.652.015h1.375c.63 0 .706-.004.898-.122l.029-.016a.535.535 0 0 1 .244-.052h.086l.077.038c.101.042.16.106.195.168.148.222.156.583.156.66 0 .621-.173.935-.513.935h-.068l-.064-.025a2.044 2.044 0 0 0-.623-.153l-.037-.004c-.312-.05-1.122-.05-2.148-.05a5.427 5.427 0 0 0-.3.019c-.021.002-.058.056-.058.056v2.842c.012.438.061.524.108.549.151.081.586.081 1.189.081 1.177 0 1.573 0 2.119-.383l.066-.04c.504-.292.64-.339.769-.339.277 0 .486.186.486.431 0 .206-.174.962-.604 1.616 0 0-.106.144-.287.163-.183.022-.954.036-1.388.036zm17.174.062a.506.506 0 0 1-.406-.216s-6.566-6.827-6.65-6.911c-.107-.151-.094.129-.094.129v4.811c0 .61 0 .946.368 1.464l.032.044c.282.334-.119.492-.119.492l-.13.029c-.27.06-.553.09-.841.09-.24 0-.5-.024-.795-.073l-.096-.016s-.407-.106-.22-.421l.063-.107c.24-.405.439-.81.439-1.679v-5.323a8.808 8.808 0 0 1-.014-.589c-.023-.411-.323-.761-1.105-1.286l-.051-.035c-.389-.268.009-.546.009-.546l.066-.037c.584-.33 1.226-.346 1.349-.346.477 0 .676.199.951.474l6.036 6.322c.095.095.259.254.344.336.084.082.105.002.105-.044v-4.969c-.013-.506-.046-.866-.385-1.174l-.035-.031c-.317-.288.003-.481.003-.481l.046-.038c.18-.148.556-.395 1.047-.395.378 0 .753.137 1.028.375l.027.023s.275.218.021.479l-.025.026c-.412.423-.428.715-.428 1.883v6.683c0 .395 0 1.057-.54 1.057zm-7.478-7.562zm18.544 7.494a4.67 4.67 0 0 1-.915-.102l-.071-.014s-.446-.071-.207-.456l.024-.049c.151-.302.234-.708.234-1.144v-6.792c0-.1-.016-.342-.012-.399.007-.09-.117-.081-.117-.081h-1.291c-.494 0-1.203.031-1.649.301l-.035.021-.038.013-.033.017c-.11.052-.205.097-.313.097h-.059l-.056-.019a.571.571 0 0 1-.225-.13s-.016-.006-.078-.079-.027-.233-.027-.233l.019-.058c.177-.53.546-1.419 1.039-1.419l.323.002c.907.093 1.841.093 2.399.093l3.905-.014c.099 0 .399-.009.662-.016.215-.006.406-.011.455-.011.401 0 1.234 0 1.234.649 0 .14-.045.356-.579 1.148l-.013.02c-.18.257-.316.298-.574.298 0 0 .153.006-.059 0s-.284-.232-.284-.232l-.012-.054c-.077-.35-.087-.395-1.469-.395h-1.169s-.099-.01-.1.092l-.001.102v6.506c0 .796.088 1.238.336 1.69l.015.027c.311.366-.17.485-.17.485l-.086.019c-.368.08-.687.117-1.003.117zm4.446-9.862zm10.296 10.107c-.073 0-1.796-.012-2.843-1.059l-.025-.027c-.278-.342-.857-1.053-.857-2.625v-5.023c-.012-.7-.012-.7-.357-1.194l-.036-.051c-.177-.253.099-.44.099-.44l.046-.028c.056-.034.113-.064.17-.091.444-.207.903-.207 1.066-.207.242 0 .693 0 1.16.323l.043.03s.302.231.05.483l-.043.043c-.343.343-.357.497-.357 1.594l.001 4.255c.027 1.263.054 2.568 2.058 2.568 1.994 0 2.25-1.268 2.25-2.372v-4.614c0-.712-.015-1.13-.316-1.431l-.031-.031c-.281-.281.028-.484.028-.484l.04-.031c.281-.215.63-.333.983-.333.358 0 .697.131.954.368l.027.025s.258.096.053.408l-.023.034c-.309.469-.349.582-.349 1.951v3.553c.002 1.54.002 4.406-3.791 4.406zm18.756-.177c-.711 0-1.117-.304-1.443-.549-.891-.689-2.072-2.183-2.3-2.476l-.738-.942c-.66-.767-.702-.797-1.14-.797-.054 0-.148-.007-.2-.005-.014 0-.008.09-.008.09v1.989c0 .9.015 1.476.311 1.942l.018.028c.245.386-.118.468-.118.468l-.035.019c-.21.113-.55.174-1.071.193h-.024c-.566-.017-.884-.074-1.098-.199l-.039-.023s-.264-.087-.128-.399l.017-.038c.266-.608.323-.933.323-1.828v-5.975c0-.482 0-.644-.434-1.243l-.034-.047c-.223-.318.149-.483.149-.483l.022-.011c.415-.2.695-.26.892-.29l.055-.004h.232c.235 0 .466.04.664.082h.765c2.584 0 4.066 1.045 4.066 2.868 0 1.072-.555 1.907-1.65 2.485-.02.01-.041.069-.028.091.143.25.519.719.678.888l.016.017.694.817c1.112 1.377 1.84 1.93 2.592 2.339l.075.041s.401.161.06.481c-.048.045-.046.048-.046.048-.407.423-.925.423-1.095.423zm-5.803-6.17c.003 0 .082.053.467.053 1.252 0 2.196-.721 2.196-1.678 0-.749-.596-1.186-1.151-1.275-.432-.063-.527-.063-1.44-.063-.013 0-.061.015-.08.041-.025.033-.019.078-.019.078v2.444c0 .157 0 .353.027.4zm17.057 6.108c-.176 0-.347-.002-.516-.005l-3.56-.028-.012-.012h-.081c-.152 0-.31-.017-.4-.032l-.042-.007s-.495-.109-.237-.5l.034-.051c.438-.663.512-.994.512-1.651v-6.411c0-.501-.072-.588-.452-.968l-.047-.047c-.337-.335.12-.532.12-.532l.069-.023.052-.017c.339-.11.807-.233 1.206-.233.164 0 .374.008.585.068h3.131c.698 0 1.03.138 1.03.921 0 .256-.038.488-.116.707l-.019.054s-.157.545-.553.111l-.036-.039c-.284-.305-.869-.385-1.093-.375h-2.009c-.011.003-.027.052-.027.052v2.375l.002.101c.001.015.004.028.002.04-.004.031.02.079.071.076.014-.001.029.003.045.005.148.013.386.013.633.013h1.375c.63 0 .706-.004.898-.122l.029-.016a.535.535 0 0 1 .244-.052h.086l.078.02a.398.398 0 0 1 .193.187c.148.222.156.583.156.66 0 .621-.173.935-.513.935h-.068l-.064-.025a2.044 2.044 0 0 0-.623-.153l-.037-.004c-.312-.05-1.122-.05-2.148-.05-.07.003-.187.008-.281.017-.028.003-.063.009-.079.065v.127l.002 2.708c.012.438.061.524.108.549.151.081.586.081 1.189.081 1.177 0 1.573 0 2.119-.383l.066-.04c.504-.292.64-.339.769-.339.277 0 .486.186.486.431 0 .196-.158.891-.544 1.521a1.864 1.864 0 0 1-.06.094s-.126.142-.287.163c-.062.008-.064.003-.095.004-.458.02-.885.03-1.291.03zm10.996.158c-.328 0-.867-.05-1.573-.287l-.032-.012c-.76-.304-1.159-.466-1.37-.582-.547-.166-.547-.667-.547-1.035 0-.822.19-1.221.581-1.221h.151l.229.23c.731.819 1.422 1.594 2.56 1.594 1.204 0 1.923-.86 1.923-1.692 0-.842-.508-1.224-1.975-2.202-1.535-1.033-2.38-1.601-2.38-3.066 0-1.204.816-2.5 2.609-2.5.568 0 .877.072 1.268.164l.1.029c.046.019.23.06.351.087l.15.034c.33.012.668.156.73.453.04.108.051.231.051.332 0 .268 0 .48-.028.636a.451.451 0 0 1-.007.053c-.041.23-.135.569-.47.435-.021-.008-.038-.026-.065-.03-.087-.016-.23-.082-.655-.364-.417-.249-1.052-.516-1.466-.516-.541 0-.998.37-.998.807 0 .591.775 1.093 1.596 1.624l.048.031c1.68 1.097 2.779 1.946 2.779 3.681.002 1.89-1.529 3.317-3.56 3.317zm-52.489-17.705c-.372 0-.728-.018-1.122-.04l-.213-.012s-.616.026-.297-.573a.242.242 0 0 0 .031-.102c.083-.27.133-.525.133-.683 0-.205-.039-.335-.071-.408L62.025 97.7a25.92 25.92 0 0 0-.714-1.486c-.039-.06-.088-.103-.241-.103h-3.782s-.152-.03-.249.135l-1.458 3.091c-.331.662-.515 1.048-.515 1.412 0 .088.08.307.128.438 0 0 .006.076.048.131.436.574-.344.608-.344.608l-.129.014c-.364.04-.755.062-1.132.062-.366 0-.713-.02-1.093-.062l-.291-.032s-.794-.246-.174-.744c.064-.051.175-.152.175-.152.499-.434.724-.874 1.036-1.482l.044-.087 5.394-11.683c.03-.074.066-.163.113-.255.14-.275.372-.841.819-.841.394 0 .586.385.897.975.159.302.35.727.618 1.323l.008.019 2.323 5.231 1.842 4.213c.485 1.212.792 1.868 1.515 2.645 0 0-.007.007.108.116.7.666-.265.758-.265.758l-.182.017c-.717.068-1.339.1-1.903.1zm-4.115-7.567c.217-.017.334-.067.3-.317l-1.151-2.802c-.183-.384-.217-.5-.35-.534-.117.033-.183.167-.3.4l-1.151 2.485c-.05.1-.167.384-.167.484 0 .05.017.284.217.284h2.602zm58.079 7.589c-.372 0-.728-.018-1.122-.04l-.213-.012s-.616.026-.297-.573a.242.242 0 0 0 .031-.102c.083-.27.133-.525.133-.683 0-.205-.039-.335-.071-.408l-1.057-2.543a25.92 25.92 0 0 0-.714-1.486c-.039-.06-.088-.103-.241-.103h-3.782s-.152-.03-.249.135l-1.458 3.091c-.331.662-.515 1.048-.515 1.412 0 .088.08.307.128.438 0 0 .006.076.048.131.436.574-.344.608-.344.608l-.129.014c-.364.04-.755.062-1.132.062-.366 0-.713-.02-1.093-.062l-.291-.032s-.794-.246-.174-.744c.064-.051.175-.152.175-.152.499-.434.724-.874 1.036-1.482l.044-.087 5.394-11.683c.03-.074.066-.163.113-.255.14-.275.372-.841.819-.841.394 0 .586.385.897.975.159.302.35.727.618 1.323l.008.019 2.323 5.231 1.842 4.213c.485 1.212.792 1.868 1.515 2.645 0 0-.007.007.108.116.7.666-.265.758-.265.758l-.182.017c-.717.067-1.339.1-1.903.1zm-4.115-7.568c.217-.017.334-.067.3-.317l-1.151-2.802c-.183-.384-.217-.5-.35-.534-.117.033-.183.167-.3.4l-1.151 2.485c-.05.1-.167.384-.167.484 0 .05.017.284.217.284h2.602zm-95.739 7.789c-.515 0-1.363-.078-2.475-.451l-.05-.018a124.108 124.108 0 0 1-1.881-.79c-.105-.046-.199-.086-.281-.128-.845-.249-.845-.997-.845-1.6 0-1.271.287-1.889.876-1.889h.22l.349.35c1.164 1.305 2.264 2.538 4.086 2.538 1.518 0 3.089-1.018 3.089-2.723 0-1.356-.809-1.965-3.147-3.523-2.418-1.627-3.749-2.522-3.749-4.817 0-1.885 1.279-3.915 4.087-3.915.895 0 1.382.114 1.998.258l.108.025.043.018c.074.03.369.097.564.141l.241.055c.506.017 1.002-.004 1.119.684.063.165.079.358.079.514 0 .077 0 .32-.006.544-.004.148-.008.316-.04.469-.032.376-.283.842-.662.804-.138-.014-.296-.121-1.163-.699-.666-.398-1.68-.823-2.345-.823-.88 0-1.624.605-1.624 1.322 0 .96 1.237 1.761 2.547 2.608l.076.049c2.647 1.73 4.38 3.066 4.38 5.791.002 2.968-2.404 5.206-5.594 5.206z" fill="#fff"></path><linearGradient id="logo--b" gradientUnits="userSpaceOnUse" x1="67.108" y1="67.076" x2="67.108" y2="5.183"><stop offset="0" stop-color="#bbcbee"></stop><stop offset=".158" stop-color="#b1c4eb"></stop><stop offset=".692" stop-color="#94b1e5"></stop><stop offset="1" stop-color="#8aa9e2"></stop></linearGradient><path fill-rule="evenodd" clip-rule="evenodd" fill="url(#logo--b)" d="M5.302 5.183h123.612v61.893H5.302z"></path><path d="M19.272 66.139l.048-9.603.384-.122c.045-.014.111-.057.181-.101.108-.069.241-.153.407-.21.096-.044.197-.082.298-.12.11-.041.221-.082.32-.136.441-.281.916-.336 1.419-.395l.128-.015a1.395 1.395 0 0 1 .376-.149l.16-.052c.048-.016.12-.04.141-.053 0 0 .51-.225.643-.275.153-.056.306-.112.467-.158l.059-.046c.118-.093.236-.185.361-.268.152-.121.354-.192.516-.249.047-.017.523-.346.59-.373.129-.053.276-.113.459-.149.011-.007.073-.042.137-.075.116-.06.233-.118.364-.16.109-.028.187-.067.277-.112.074-.037.149-.073.226-.105.116-.113.361-.175.598-.32.094-.057.25-.105.356-.171l.202-.114.513-.164c.093-.023.189-.045.284-.066.196-.044.381-.085.527-.145.138-.047.231-.096.325-.143.166-.084.201-.096.481-.212.171-.092.403-.182.526-.231.073-.042.149-.079.227-.116.049-.023.099-.046.145-.073l.132-.056c.107-.03.204-.074.301-.117.149-.065.224-.119.392-.164.115-.099.237-.192.358-.284l.228-.156c.197-.117.42-.25.703-.333l.141-.022c.503-.012.922.078 1.292.16.387.085.724.158 1.144.128l.157.024.176.034c.17.069.424.071.589.059.186-.054.272-.083.459-.17l.17-.084c.061-.038.149-.093.264-.134.122-.114.316-.284.624-.329.208-.068.421-.099.628-.129.127-.019.254-.036.372-.065.356-.064.792-.212.874-.22.149-.034.283-.114.38-.172.127-.076.448-.26.586-.31.102-.069.222-.13.349-.167l.133-.07.247-.139.427-.053c.078.013.328-.064.456-.118.143-.06.176-.098.319-.13.204-.058.417-.171.644-.291l.129-.068c.14-.108.273-.225.406-.341.193-.168.391-.342.615-.501.146-.16.315-.254.443-.326.02-.011.36-.291.407-.33.04-.033.188-.176.234-.221.226-.222.461-.42.698-.619.13-.109.261-.219.39-.334.055-.062.427-.419.556-.498.141-.15.294-.259.432-.358l.14-.102c.21-.148.392-.292.574-.437.187-.149.273-.228.392-.373.016-.02.377-.428.517-.555.247-.262.322-.347.461-.448.034-.024.068-.048.101-.074.099-.115.274-.223.271-.218.042-.062.373-.297.426-.313l.199-.141.218-.142.422-.414c.11-.123.218-.242.333-.354l.168-.191c.069-.065.149-.146.206-.169.103-.078.207-.11.344-.157.368-.081.771-.167.771-.167l.126-.013c.142-.015.267-.051.393-.086.119-.032.237-.064.362-.087.164-.047.457-.06.626-.096l.132-.013c.2-.051.465-.352.501-.382.039-.033.192-.22.229-.256.246-.218.477-.519 1.773-1.639.289-.25.614-.531.708-.621l.233-.18a.843.843 0 0 1 .216-.152c.088-.074.592-.365.592-.365.102-.081.3-.184.3-.184.081-.09.321-.299.373-.316l.226-.201c.056-.044.195-.211.256-.249a1.97 1.97 0 0 0 .299-.28l.179-.147c.086-.044.357-.228.517-.285l.34-.063.246-.086c.149-.031.23-.1.389-.154.192-.066.283-.142.514-.184 0 0 .267-.03.343.013s.19.088.263.124c.082.041.134.044.166.065.296.206.46.25.591.376.022.021.145.089.167.107.262.167.43.278.644.425.075.051.111.061.158.092.07.035.286.021.447.037.161-.012.099-.014.266-.017.107-.002.215-.003.321-.007l.246-.013c.256-.014.52-.03.742-.014l.25.08c.116.07.356.124.469.198.299.194.638.413.954.525l.106.051c.074.045.154.082.234.12.124.058.205.098.339.187.103.041.226.069.307.116.116.067.446.154.446.154.008-.004.209-.039.264-.066.023-.019.155-.078.237-.119.061-.031.232-.096.232-.096.425-.268.658-.394 1.109-.389.179-.005.444.15.444.15.087.044.167.086.241.14.064.046.533.295.556.313 0 0 .461.364.559.396l.576.491c1.298 1.113 2.192 1.785 2.397 1.917-.008-.005.331.144.394.187.059.035.088.039.115.045.088.019.608.316.608.316.077.043.153.083.229.123.236.124.479.254.716.437 0 0 .107.091.126.102.101.06.172.115.374.324.078.068.139.138.191.198.03.034.257.201.257.201.032.025.147.062.222.086.131.042.26.086.376.147l.451.271c.146.087.278.188.37.258.033.026.385.253.385.253.196.13.4.221.64.287l.385.199c.053.057.174.112.224.171.079.092.16.181.302.399.049.038.261.281.288.303l.184.184c.027.019.053.04.076.063.101.048.258.074.387.119.185.063.371.086.565.194.278.096.513.18.686.241.08.028.507.201.595.218l.167.061c.192.109.821.278 1.014.378.193.101.442.217.623.33.211.132.549.488.637.558l.166.127c.085.079.215.204.38.293.11.058.292.142.292.142l.305.124c.12.079.37.133.541.203.254.103.406.122.632.23.085.04.169.082.252.126l.693.243c.292.142.588.263.843.409.1.057.264.105.264.105l.316.105c.24.076.441.209.791.316.142.044.288.092.437.145.238.084.386.087.632.182.234.09.566.191.799.279.272.102.537.104.793.185.122.039.311.107.543.155.316.066.613.183.659.192.198.04.369.066.791.198.132.041.399.117.536.162.228.091.465.144.717.2.124.027.248.055.369.086l.233.055.369.132c.105.072.542.122 1.002.249.103.041 1.156.328 1.252.376.121.06.225.112.33.137.194.061.576.161.673.191.155.027.356.106.512.169.089.036.618.134.715.161.181.136.571.204.633.226.194.068.559.235.955.334.117.075.305.091.571.176l.238.104c.207.058.358.099.553.171.171.063.57.214.751.264 0 0 .817.205.889.229l.494.18c.334.151 1.238.466 1.225.461.167.09.034 11.81.034 11.81l-92.914.238z" fill="#636e9c"></path><path d="M71.437 52.757a7.062 7.062 0 0 0-.514-.367s-.159-.134-.222-.182a6.746 6.746 0 0 1-.485-.44c-.009-.01-.469-.395-.542-.468a95.34 95.34 0 0 0-.282-.283c-.001-.021-.136-.13-.167-.205-.016-.043-.297-.299-.35-.369-.067-.09-.282-.353-.282-.353.007-.042-.158-.231-.16-.311-.01-.25.101-.384.178-.478.176-.215.525.235.627.273.033.013.277.317.299.345.053.057.111.089.167.159.05.064.141.183.287.326.093.09.295.27.385.363.125.123.34.275.476.39.125.106.226.212.345.326.117.073.244.177.362.298.107.035.159.124.195.186 0 0 .189.178.181.286l.005.152c-.031.218-.188.632-.503.352zm17.05 2.491a1.448 1.448 0 0 1-.54-.059c-.102-.033-.262-.049-.389-.102-.146-.061-.283-.119-.441-.141 0 0-.279-.111-.411-.15-.156-.046-.036.038-.177-.049a12.669 12.669 0 0 1-.82-.302s-.177-.09-.259-.126c-.096-.042-.381-.206-.441-.231-.114-.048-.484-.291-.555-.333a7.232 7.232 0 0 1-.371-.227 1.957 1.957 0 0 1-.373-.292c-.101-.112-.126-.64-.066-.67.025-.013.221-.108.279-.07.059.038.181.09.301.142.103.045.381.219.48.264.118.055.799.367.828.383.182.105.265.131.446.219.136.066.272.13.406.192l-.024-.011c.187.109.668.267.764.303.134.05.382.175.521.201.113.021.215.084.325.121.075.036.293.091.357.113.08.028.242.113.242.113.146.113.178.21.187.327.003.041.007.11.004.19.001.163-.106.247-.273.195z" fill="#fff"></path><path d="M7.123 44.304c.143.373.288.64.471.899.255.345.618.477.57 1.145-.079.257.573.593.799.902.143.193.099.668.023.905-.067.282-.265.398-.241.56.135.214 1.175.151 1.467.052.151-.131.337-.144.386-.516-.014-.656.341-.513.512-.768.052-.136.245-.306.217-.502.11-.25.254-.731.399-.563.096.048.12.217.201.387.05.125.329.472.378.542.122.165.058.42-.033.651-.107.27.604.402.631.853.027.458-.522.409.242.95.13.104.316.158.494.165.093.003.549-.194.72-.175.141.007.349.045.551.063.273.025.265-.066.349-.105.085-.04.229-.139.356-.198.115-.088.166-.122.249-.277.04-.079.047-.217.067-.336-.099-.455.011-.495.223-.74.232-.297.172-.817.434-1.091.221-.156.291.198.35.371.079.087.164.41.208.484.059.158.168.241.427.367.368.207.078.827.295 1.044.101.157.462.247.632.455.224.227.026.488.204.764.039.078.062.148.096.202.035.057.333.325.459.334.289.021.691-.187.944.15.216.288.538.893.836 1.012.058.036.137.049.201-.007l.253-.629c.053-.514.605-.871.659-1.041.204-.85.116-1.068.302-1.004.157.014.149.069.359.46.222.412.162.854.188 1.066.026.214.082.379.206.544.137.184.15.216.374.44.224.303.104.762.121 1.193-.021.173.019.252.164.411.132.132.316.264.466.278.483-.036.349-.302.791-.518.203-.193.488-.296.567-.6.231-.366.403-.044.474.079.192.329.165.56.245.76.137.195.369.395.501.896.053.369.922.87 1.159.839.527-.285.12-1.131.794-1.203.678-.352.519-.721.798-1.364.221-.423.321-.191.45.16.031.229.119.435.211.871.285.444.606.658.406 1.395-.025.439.511.387.514 1.046 0 .072.898.339 1.19.162.185-.224.192-.45.107-.814-.066-.181.128-.394.32-.494.086-.084.084-.392.114-.597.018-.197.218-.489.343-.51.196-.058.169.614.622 1.137.114.215.133.406.092.701-.018.094.102.292.286.48.292.299-.013.918.903.791.405.01.599-.097.936-.183.468-.346.818-.893.946-1.497.308-.485.468.196.619.365.13.146.305.198.368.423.193.313.062.678.451.672.16.017.28-.03.377-.098.148-.102.243-.25.345-.287.126-.046.261.061.5.395.121.17.27.398.458.695.18.41.287.518.355.533.082.079.083.086.277.21.306.084.523.207.817-.021.211-.085.317-.202.458-.389.137-.326.217-.674.488-.919.183-.165.285-.54.379-.776.149-.243.283-.238.474.166.059.198.119.277.237.494.085.158-.009.64.079.731.325.374.589.385.712.632.127.185.238.347.277.672.122.695.474.909.632 1.041.172.058.455-.096.712 0 .3.112 1.146.501 1.215.07.105-.394.208-.835.452-1.204.266-.166.231-.219.485-.395.532-.519.419-.989.735-1.477.193-.144.21-.046.403.243.045.128.096.193.189.417.343.422.232.783.237 1.067.041.503.394.642.527 1.067.033.232.05.484.019.68-.009.053.034.242.008.453.046.067.078.289.12.36.113.187.22.379.365.539.3.151.463.301.827.178.179-.039.257-.335.269-.49.02-.751.413-.714.54-1.076.077-.467.33-.938.428-1.253.081-.156.193-.156.337-.008.153.402.111.382.14.877.064.112.113.238.213.32.446.366.062.89.169 1.156.348.637.607.701.743.953.158.385.251.673.434 1.037.109.071.22-.065.326-.238.16-.26.377-.529.473-.553.181-.032.145.198.422.532.16.193.163.402.202.561.039.158.128.16.414.252a.547.547 0 0 0 .318-.206c.147-.195.175-.481.256-.726.219-.289.438-.633.366-1.09a2.957 2.957 0 0 1 .047-.867c.014-.278.152-.497.241-.657.128-.177.178-.293.248-.345.203-.477.358-.472.476-.261.079.25.114.497.171.791.129.273.138.468.279.82.03.074.052.11.172.23.118.14.214.26.26.465.076.215.007.625.02.7.016.092.004.319.111.543.032.102.189.215.296.316.248.142.351.203.643.307.368-.018 1.648 1.945 1.879 1.822.482.044 1.137-1.195 1.423-.791.408-.033 2.646 2.421 2.846 2.293.542.04 3.965 1.146 4.132 1.213L5.19 83.542s-.051-39.204-.016-39.225l1.949-.013z" fill-rule="evenodd" clip-rule="evenodd" fill="#4f5858"></path><path d="M89.21 52.595c.123-.026.279-.089.409-.086.218.006.249-.052.38-.079l.268-.055c.096-.019.202-.018.288-.058.081-.037.173-.034.259-.05l.157-.03.26-.047c.424-.074.772-.122.917-.108.183.018.371.044.563.077.212.036.428.081.647.13l.268.062.392.096c.208.052.355.121.561.173.253.064.598.049.843.105.268.061.497.176.747.215.383.06.754.164 1.125.266.454.126.908.25 1.381.293.174.016.351.038.515.093l3.743 1.338c.424.133 1.221.578 1.557.599.537.032 1.539-.044 1.758-.013.335.048.649.051.944.077 0 0 .687-.067.852-.015.379.031.737-.074 1.09.025.11-.011.197.002.357.009.089-.01.263-.029.272-.035.126-.088.48-.617.2-.829-.562-.099-.593-.264-1.111-.35-.203-.054-.391-.125-.593-.179-.074.003-.299-.116-.593-.179-.564-.345-1.52-.495-2.194-.708-.316-.131-1.067-.297-1.372-.442-.312-.149-.708-.151-1.028-.29-.128 0-.843-.237-1.067-.29-.277-.092-.422-.119-.672-.184-.408-.119-.74-.274-1.294-.379-.367-.118-.472-.121-.712-.184-.407-.043-1.648-.414-1.895-.438-.659-.25-.976-.216-1.568-.461-.562-.145-.962-.25-1.607-.395-.356-.119-.58-.185-.83-.287-.211-.082-.276-.108-.415-.143-.316-.081-.565-.152-.771-.287-.573-.377-2.039-.947-2.135-1.04-.146-.062-.24-.085-.356-.143-.132-.041-.195-.1-.712-.251-.356-.141-.58-.326-.712-.43-.178-.215-.378-.404-.563-.61a1.904 1.904 0 0 0-.65-.34 16.248 16.248 0 0 1-.951-.413 4.162 4.162 0 0 1-.326-.143c-.254-.051-1.183-.403-1.453-.466-.256-.06-.72-.169-.893-.295-.145-.04-.149-.128-.224-.184a17.689 17.689 0 0 0-.513-.633c-.077-.121-.214-.171-.296-.287-.023-.008-.47-.185-.682-.251-.217-.203-.458-.378-.682-.574-.177-.096-.354-.225-.504-.287a7.385 7.385 0 0 1-.326-.143c-.356-.118-.528-.21-.649-.3-.308-.274-.46-.476-.745-.776-.254-.188-.473-.374-.861-.491-.208-.121-.363-.15-.593-.329-.376-.23-.696-.451-.883-.567-.538-.451-1.717-1.406-1.794-1.546-.156-.082-.47-.359-.591-.477a3.596 3.596 0 0 1-.503-.406c-.261-.148-.377-.256-.538-.398-.116-.108-.43-.267-.548-.267-.079.013-.145.041-.258.059-.186.065-.218.163-.413.217-.091.068-.302.184-.404.244-.3.138-.309.21-.49.273-.096.024-.523-.032-.708-.137-.332-.121-.389-.24-.714-.369-.113-.125-.336-.137-.458-.25-.171-.064-.237-.158-.467-.225-.179-.143-.353-.256-.495-.354-.137-.114-.244-.123-.407-.205-.115-.07-.415-.002-.601-.028-.272.109-.718.009-.995.112-.372.074-.571.05-.717 0-.147-.074-.261-.188-.416-.252-.021-.049-.233-.141-.314-.25-.103-.034-.581-.444-.773-.541-.111-.034-.27-.152-.374-.194-.166-.054-.583.134-1.107.29-.038.004-.121.062-.162.078a3.24 3.24 0 0 0-.708.581c-.374.317-.479.381-.773.679-.196.145-.426.25-.625.392-.091.086-1.106.875-1.212.998-.198.158-1.186 1.173-1.36 1.321-.156.168-.299.301-.353.366-.105.124-.252.243-.356.369-.134.113-.232.285-.384.376-.156.164-.433.335-.63.362-.281.066-.326.057-.698.158-.83.25-1.298.228-1.844.556-.337.394-.675.785-1.097 1.076-.139.035-.187.18-.326.215-.093.09-.463.393-.623.466-.036.045-.093.059-.156.138-.039.033-.032.059-.111.149-.079.119-.106.302-.178.43-.472.577-1.185.862-1.69 1.399-.17.081-.25.271-.415.359-.147.109-.234.291-.385.394-.101.164-.269.248-.385.395-.14.101-.322.331-.169.432.237.054.487-.05.759-.073.203-.085.425-.157.625-.309.21-.045.408-.222.591-.3.49-.161.569-.404.922-.538.236-.095.374-.15.596-.233.194-.111.329-.268.526-.526.072-.117.31-.35.349-.506.156-.228.205-.308.297-.387.408-.158.586-.225 1.037-.397.291-.03.718-.277.992-.328.264-.086.454-.237.619-.25.166-.013.535.111.61.211.145.237-.5.598-.583.632a2.927 2.927 0 0 1-.426.282c-.161.073-.278.194-.426.282-.13.133-.115.153-.082.32.056.208.337.215.516.188.426.047.347-.032.796-.027.455-.04.527-.112.992-.306.411-.125.77-.483 1.124-.676.312-.26.525-.513.8-.753.307-.202.548-.485.83-.717.524-.525 1.023-1.082 1.571-1.578.378-.242.734-.474.83-.538.07-.047.288-.196.523-.323.171-.093.38-.217.525-.234.148-.018.169.136.213.234.016.136.045.293.053.356 0 .158-.053.25-.053.25-.038.097-.176.225-.316.369-.051.082-.145.145-.213.214-.183.13-.232.234-.379.354-.121.098-.351.34-.422.421-.096.129-.285.241-.348.332-.192.155-.244.234-.474.43-.3.306-.618.591-.919.897a6.502 6.502 0 0 1-.889.933c-.301.305-.631.576-.949.861-.417.2-.748.506-1.097.789-.392.243-.644.38-1.081.568-.213.245-.667.474-.935.652-.282.16-.456.296-.884.495-.128.133-.319.174-.48.33-.1.092-.193.19-.482.342-.238.203-.418.328-.615.483-.297.224-.568.418-.771.395-.248.005-1.491-.07-1.805-.144-.119-.02-.225.075-.267.072-.297.167-.61.314-.949.43a5.362 5.362 0 0 1-.949.466c-.295.205-.54.471-.919.574-.112-.067-.54-.029-.583-.179-.438-.634.957-1.004.88-1.829-.242-.397-.261-.456-1.172-.012-.298.18-.673.321-1.051.478-.387.094-.709.267-1.097.359-.887.003-.771-.263-1.53-.068-.367.303-1.656.719-2.167.848l-1.178.141c-.409.253-.562.263-.93.518-.126.087-.29.207-.394.249-.238.116-.518.23-.528.234-.041.02-.236.218-.236.218-.284.146-.408.209-.653.404 0 .036-.327.184-.256.263.021.079.124.132.226.158.506.209.655.096.948-.075.176-.027.333-.122.504-.179.174-.059 1.205-.429 1.449-.488.06-.015.481-.141.623-.179a9.752 9.752 0 0 1 1.203-.316c.355.064.702.004 1.07.024.169-.07.321-.161.504-.215.536-.062.85-.339 1.263-.125.187.108.303.377.161.519-.613.55-.473.466-.709.554-.259.14-.374.241-.593.323-.087.074-.153.101-.296.179-.12.093-.331.172-.251.317.053.132.164.389.243.389.091.082.364.063.594-.014.28-.026.455-.096.671-.144.287-.036.455-.144.719-.192.311-.072.684-.18.982-.24.419-.091.335-.072.634-.179.42-.085.479-.144.809-.231.213-.149.61-.181.809-.347.263-.178.479-.209.638-.327.152-.113.173-.099.386-.155.104-.006.197.099.326.215.158.098.239.2.356.215.058.084.81-.168 1.127-.359.162-.09.317-.191.504-.251.133-.138.28-.114.504-.287.2-.185.268-.25.415-.359.169-.083.201-.237.536-.249.312.012.335.15.356.316.045.207.018.133.062.255.053.032.037.191.119.287.059.12.012.154.087.255.141.208.375.218.561.103.288-.165.573-.277.805-.511.329-.159.64-.411.944-.601.309-.194.583-.413.83-.682.324-.17.547-.462.86-.646.12-.13.252-.245.415-.323.296-.284.396-.149.474.072.012.135.023.158-.02.25-.049.106-.24.383-.247.395-.09.142-.13.246-.237.323-.185.228-.317.412-.652.825-.073.115-.191.295-.326.395-.091.114-.194.235-.296.43-.101.215-.171.268-.267.466-.122.177-.27.355-.119.538.056.099.369.157.538.18.235.03.37-.315.596-.531.177-.108.29-.295.445-.43.057-.086.655-.545.776-.566.637-.521.749-.768 1.213-1.498.134-.201.252-.497.346-.562.277-.167.532-.361.83-.502.041-.034.144-.09.184-.19.203-.281.316-.365.498-.671.276-.252.518-.544.83-.753.106-.158.225-.302.356-.43a.845.845 0 0 1 .213-.228c.097-.061.279-.109.25-.092.101-.001.255.085.328.105.19.112.235.216-.1.797-.063.074-.369.545-.51.751-.112.093-.197.262-.272.339-.268.395-.324.448-.457.825-.034.186.012.215-.017.408.052.248.246.412.119.789a3.747 3.747 0 0 1-.415.825c-.097.337-.198.275-.33.71.002.066.14.369.335.503.276.154.456.09.562.016.075-.086.235-.241.383-.404l.025-.024c.394-.388.506-.799.763-1.366.091-.118.22-.475.369-.618.161-.14.34-.258.504-.394.104-.185.184-.456.279-.652.072-.206.157-.381.278-.536.121-.259.216-.405.303-.569.054-.135.102-.277.185-.377.051-.061.1-.054.186-.072.087.007.473-.019.512.046.086.143.083.392.114.602.089.072.28.02.415.036.105-.012.241-.171.27-.268.024-.401-.011-.761-.04-1.225-.044-.49.201-.56.24-.996.019-.377-.001-.567-.016-.937-.013-.167.473-.313.559-.295.079 0 .39.306.471.423.095.1.195.195.267.323.118.128.485.538.587.63a2.4 2.4 0 0 1 .3.337c.08.092.083.119.203.191.168.168.096.144.264.264.144.144.168.144.24.24.216.12.284.299.383.359.058.074.31.298.378.359.128.141.522.532.689.609.119.155.353.321.474.461.173.14.307.298.479.373.062.081.634.507 1.087.758.259.119.299.198.474.287.128.144.4.266.544.39.29.236.685.426.987.646.331.186.545.417.92.549.312.166.512.159.591-.19.056-.314.008-.433-.357-.778-.165-.155-.284-.321-.442-.424-.084-.089-.496-.382-.545-.522-.195-.159-.357-.355-.576-.487-.069-.106-.183-.161-.258-.26a1.168 1.168 0 0 0-.287-.261c-.179-.177-.4-.306-.576-.487-.033-.055-.346-.362-.346-.362-.038-.056-.153-.158-.075-.299.063-.205 1.927.321 2.129.29.316.167.518.294.917.616.296.203.644.513.909.755.155.13.542.484.702.577.231.163.1-.004.444.34.213.138.348.257.458.458.105.22.046.405.188.668.095.119.299.399.39.456.137.168.305.3.445.466.228.234.459.491.682.681.081.069.114.102.246.18s.232.232.357.272c.192.187.332.317.52.507.092.102.259.222.403.342.078.055.202.151.252.17.138.117.276.077.381.035.202-.086.29-.25.195-.43-.145-.279-.104-.388-.274-.637-.096-.185-.086-.297-.192-.471-.123-.203-.249-.403-.368-.61a6.107 6.107 0 0 1-.246-.469c-.05-.15-.085-.184-.089-.323-.004-.138-.02-.26-.029-.393a2.131 2.131 0 0 1-.001-.289c.034-.186.092-.343.119-.538 0-.227.082-.439 0-.681a6.346 6.346 0 0 0-.334-.693c-.044-.083-.089-.263-.133-.347-.088-.168-.172-.243-.244-.431a1.215 1.215 0 0 1-.18-.356c-.05-.131-.099-.263-.175-.362-.058-.325-.273-.458-.267-.861.006-.399.293-.6.474-.502.1.118.235.128.348.288.126.147.267.281.383.344.196.222.34.312.592.552.158.132.337.225.445.309.113.091.145.135.356.251.174.125.385.257.582.349.419.193.637.44.709.457.492.313.161.16.652.474.336.138.718.335.731.652-.043.111-.006.216-.086.339-.037.058-.056.149-.089.215-.036.073-.036.18.017.295.071.189.108.241.25.315.306.084.398.19.622.229.343.171.514.198.801.308.719.249 1.184.347 1.674.523l.422.044z" fill-rule="evenodd" clip-rule="evenodd" fill="#fff"></path><path d="M58.351 41.211c-.385.337-.634.496-.874.718-.174.088-.294.261-.49.322-.066.076-.237.179-.237.179-.131.077-.175.121-.237.179-.08.124.002.348.059.394.101.137.228.139.444.018.171-.092.264-.179.382-.25.141-.085.29-.183.419-.27.123-.083.297-.216.424-.31.126-.093.181-.159.317-.228.144-.127.194-.172.208-.359.012-.158-.008-.277-.059-.359-.072-.067-.202-.133-.356-.034zm13.382 3.664c-.018.002.004.163.01.193.003.104.052.124.109.201.036.004.224.207.297.287.17.142.428.415.445.431.125.114.218.153.297.287.17.141.324.302.474.466.141.118.294.409.534.431.201.018.355-.467.181-.816-.14-.175-.232-.196-.409-.401-.111-.068-.046-.045-.157-.146-.107-.086-.188-.202-.297-.287-.199-.178-.409-.342-.593-.538-.175-.187-.378-.476-.593-.502-.15-.045-.227.11-.298.394zm15.763 4.8a2.247 2.247 0 0 0-.03.502.169.169 0 0 0 .089.108c.207.153.346.188.652.395.177.144.428.199.623.323.137.059.303.166.466.208.074.019.327.025.368-.009.143-.121.157-.545.026-.666a2.7 2.7 0 0 0-.682-.394c-.219-.141-.416-.227-.682-.394-.145-.077-.494-.321-.682-.215-.064.029-.128.022-.148.142z" fill-rule="evenodd" clip-rule="evenodd" fill="#636e9c"></path><path d="M34.344 69.407c.059-.237.269-.476.404-.571.249-.268.348-.177.512-.732.105-.211.184-.58.369-1.001.237-.264.354.103.395.264.075.267.039.167.111.399.058.271.36.455.396.739.092.424-.032.534.106.771.046.255.391.257.576.396l.31.225c.375.263.512.068.922-.094.245-.077.307-.156.449-.224.179-.195.229-.336.398-.54.076-.112.277-.217.338-.342.056-.131.215-.494.316-.58.105 0 .113.094.211.158.033.117.094.27.145.369.032.117.098.262.086.401.092.271.197.439.281.504a.51.51 0 0 0 .393.112c.159.01.234-.044.337-.112.084-.066.137-.145.225-.224.082-.199.252-.788.489-.577.132.053.364.529.522.689.139.16.275.41.505.392.239-.027.562-.316.843-.561.213-.586.341-.856.618-1.177.174-.24.174-.346.112-.504-.04-.267-.096-.368-.112-.448-.01-.394.411-1.03.49-1.317.358-.28.331.552.521.868.206.28.314.469.502.767.073.189.059.435.116.858.042.387.524.502.695 1.114.339.166.651.121 1.046.231.249-.036.134-.065.297-.188 0 0 .292-.3.257-.534-.028-.187.257-.435.632-.672.277-.217.02-.672.249-1.112.042-.081.118-.149.192-.227.153-.44.129-.261.37-.796.129-.187.256-.125.415.316.112.31.158.376.178 1.073.008.288.054.55.144.777l.158.211c.105.053.266-.088.366-.25.108-.171.058-.24.225-.393.178-.327.289-1.151.545-1.086.158 0 .25.329.41.47.262.202.117.703.46.795.426.092.784-.407 1.225-.459.256-.155.567-.384.562-.673-.058-.327-.057-.595.056-.728.574-.547.438-1.393.791-1.179.201.061.289.266.369.448.069.192.051.289.125.395.056.075.138.165.217.283.159.324.214.316.199.727-.077.419.284.353.545.447.57-.029.597-.6.899-.897.222-.531.618-.206 1.067.28.24.133.296-.077.44-.265l.166-.338c.032-.334.176-.58.188-.634.213-.24.36.238.527.079.046-.044.132-.158.184-.264.079-.29.264-.58.154-.863-.075-.35.11-.64.347-1.246.2-.385.494-.612.763.262.186.604.48.339.545 1.266l.081.208c.103.085.144.348.364.041s.188-.158.262-.337c.074-.179.297-.378.364-.563-.009-.234 0-.356-.02-.573-.158-.514.18-.59.455-.988.038-.205.201-.342.179-.607.143-.423.08-.817.337-1.009.122-.178.261.225.337.393.065.191.13.31.168.392.102.347.543.282.45.8.013.238-.07.569.012.703.173.257.068.273.277.494.217.333.335.757.27 1.048.085.609.388.548.631.397s.385-.285.383-.693c-.047-.263.04-.52.316-1.028.246-.224.418-.406.481-.609.032-.101.207-.385.211-.399.059-.119.119-.296.168-.538-.193-.929.176-1.324.24-1.875.191-.35.367.014.533.572.139.466.436.721.4 1.501-.048.23.134.373.181.616.145.243.279.518.435.969.012.036.074.418 0 .632-.016.185.322.796.585.717.305-.016.264-.056.416-.104.599-.308.264-1.001 1.08-1.306.238-.117.317-.354.325-.846-.113-.615.488-.764.58-.922.139-.124.201-.529.182-.485.038-.125.034-.325.2-.463.224-.093.452.569.519.764-.034.2.054.423.151.569l.218.242c.14.058.257-.11.413-.347.359-.957-.142-1.871.566-1.946.156-.184.168-.39.182-.584.043-.214.05-.395.198-.509.156-.12.215.403.319.582.073.356.021.417.108.7.134.721.738.441.586 1.637.035.17.071.442.233.552.204.21.721-.188.699-.625-.022-.267.084-.412.242-.544.105-.237.266-.291.395-.659.072-.237.032-.169.026-.264-.026-.29-.105-.712-.079-.87.059-.237.269-.476.404-.571.241-.426.408-.455.571-1.01.105-.211.184-.58.369-1.001.237-.264.354.103.395.264.156.289.197.478.269.71.058.271.103.497.074.687.092.424.072.553.211.791.053.29.188.414.422.58.135.179.216.631.221.916.006.168-.079.402.101.532.242.107.395.184.484.177.224-.119.366-.314.509-.509.093-.127.124-.316.135-.51-.057-.417.079-.817.456-1.335.295-.144-.034-.931.472-1.354.108-.187.146-.394.16-.701.051-.22.047-.144.124-.351.068-.135.214-.053.237 0 .095.142.042.166.153.299.159.341.248.306.26.566.007.468-.067.361-.018.604.029.14.087.384.192.464.16.268.273.303.308.703.033.376.36.451.401.401.146-.18.299-.435.58-.798.171-.411.332-.499.448-.738.29-.316.782.422.949.281.051-.043.07-.003.112-.056a3.62 3.62 0 0 1 .393-.392c.1-.123.1-.149.153-.307.069-.604.184-1.026.447-1.436.073-.152.149-.398.281-.392.052.047.083.008.168.168.075.139.081.406.243.734.392.33.246.637.337.841.225.152.368.233.635.182.178-.066.182-.194.229-.491-.04-.731.184-.738.626-1.634.174-.307.035-.517.083-.853.107-.229.214-.386.337-.673.093-.287.146-.419.146-.577.065-.159.117-.344.264-.422.2-.069.206.169.317.429.1.28.173.392.304.583.368.326.216.616.249 1.077-.007.329.02.329.296.555.172.196.356.328.409.46.132.29.079.791.184.949.692-.026.548-.526.988-.797.336-.277.921-.283.886-.806-.156-.506.3-.672.449-1.009.036-.207.058-.428.168-.561.017-.228.201-.571.386-.333.163.417.133.806.344 1.174.119.233.24.304.409.452.2.195.187.281.343.686.023.045.125.249.631-.137.282-.092.489-.106.613-.356.04-.099.09-.807.078-.925-.038-.4.159-.551.397-.894.105-.237.237-.178.277-.672.04-.329.119-.567.601-1.019.145-.066.171-.184.231-.456.054-.376.19-.67.393-.897.19-.195.208.316.281.504.065.197.214.365.313.622.057.235.098.374 0 .613.02.198.376.277.506.657.108.179.022.368.121.472.171.309.392.214.788.201.295-.098.309-.647.591-.758.146-.116.287-.19.281-.393.08-.175.025-.548.056-.616.019-.299.139-.289.258-.526.145-.154.277-.435.36-.707.033-.396.183-.723.288-1.048.232-.204.255.067.38.148.082.105.16.248.237.474.019.256 0 .369-.026.738.053.211.091.334.29.553.158.158.12.331.179.687.04.316.073.488.059.573.086.166.432.127.459-.008a.934.934 0 0 1 .444-.62c.322-.205.04-.703.127-1.056.072-.295.414-.412.554-.763.211-.369.329-.286.448-.053.045.088.134.178.15.293.106.243.043.504.29.501.349 0 .386.618.593.797.128.111.311.12.407-.063.177-.335.431-.587.391-.857.005-.426.081-.495.113-.86s.374-.615.374-.615c.249-.381.191-.83.345-1.174.21-.081.376.324.526.869.078.284-.014.508.223.917.19.327.295.643.348.953.006.033.114.209.178.237.176.078.175.063.258-.015.112-.107.187-.281.405-.468.125-.156.405-.281.493-.436.411-.406.595.419.886.688.274-.096.523-.315.679-.533.161-.465.113-.855.506-1.129l.212-.181c.133-.11.317-.318.374-.624.157-.317.233-.885.438-.953.241-.035.247.481.357.763.075.187.169.416.306.678 0 0 .179.107.358-.143.143-.226.37-.336.475-.158.079.237.394.566.499.751.153.186.265.344.474.553.153.265.929.217.908-.22-.011-.093.115-.36.206-.439.105-.132.189-.159.277-.327.089-.168.112-.618.032-.734-.067-.134.015-.348.012-.45.087-.163.11-.218.22-.296.176-.231.318-.465.413-.547.241-.426.238-.589.39-1.098.079-.361.153-.479.216-.871.319-.187.316.343.436.673.032.435.156.636.164.857.031.214.497.295.639.665.104.216.112.257.119.553-.035.361-.158 1.502.481 1.496.31-.053.725-.231 1.107-.29.171-.099.324-.241.377-.465.264-.606-.166-.971.098-1.485.264-.382.413-.187.578-.938.035-.173.043-.572.078-.745.004-.326.135-.497.25-.906.167-.378.351-.088.515.215.07.223.108.423.134.607.053.343.125.605.25.838l.288.346c.305.449-.009 1.04.199 1.135.133.223.412.316.565.826.058.676.295.719.69.571.764-.59.7-1.662 1.144-1.192l.042 79.884H5.04l-.019-48.05s.301-.483.648-.646c.161-.465-.14-.875.574-1.309-.015-.094.156-.278.182-.515.043-.214.115-.439.264-.553.165-.112.205.112.391.398.123.245.465.318.32.765.015.051.033.099.053.145 0 0 .309.407.526.377.271-.122.382-.404.562-.617.103-.084.045-.379.256-.695.075-.113.477-.404.474-.527.164-.513-.067-.894.211-1.212.237-.184.305-.306.395-.369.324-.282.464-.649.501-1.054.249-.357.549.078.689.401.093.363.093.521.224.785.092.424.343.395.553.949.105.211.105.784.026 1.001 0 .283.158.33.351.576 0 0 .077-.013.193-.015.15-.037.216.001.34-.062.201-.118.16-.262.225-.392-.012-.236.146-.344.225-.448.205-.048.358-.147.517-.241l.075-.17c-.154-1.147.492-1.574.711-2.239.052-.168.038-.302.09-.47.094-.359.229-.553.445-.891.117-.15.221.126.264.243.044.229.399 1.02.399 1.02.133.252.52.352.533.937-.022.268.019.414.045.678.232.544.615.484 1.449.455.593-.119.712-.277.929-.712.178-.534.654-.64.771-1.028.395-.751.377-1.131.569-1.674.161-.178.393.034.506.448.177.455.431.516.546.719.254.233.074.707.633.515.242-.058.399-.199.562-.336.197-.222.262-.521.327-.817.02-.088.054-.468.178-.81.116-.346.329-.53.394-.782.154-.368.034-.601.281-.673.293-.101.34.296.618.56.144.289.256.414.276.552.066.119-.009.281.152.501.096.176.249.104.472.124.465-.04.952-.243 1.011-.504-.099-1.023.441-.724.449-1.513.104-.294.307-.554.393-.897.243-.347.472.3.958.897.087.154.038.46.127.708.065.309.397.416.474.712.116.244.119.422.241.711.192.35.67.188 1.177.224.496-.196.647-.48.786-.757 0 0 .11-.59.257-.751s.268-.292.304-.416a5.47 5.47 0 0 1 .17-1.106c.354-.376.465.257.663.75.174.212.257.456.247.665a.705.705 0 0 0 .247.582c.119.04.134.103.362.137.234-.028.301-.075.449-.16.084-.048.075-.262.216-.527.183-.344.553-.461.695-1.127l.172-1.024z" fill-rule="evenodd" clip-rule="evenodd" fill="#183029"></path><path d="M126.658 126.766H7.084V7.192h119.574v119.574zm5.332-125.04H1.687v130.303H131.99V1.726z" fill="#fff"></path><path d="M133.721 133.922H0V0h133.721v133.922zM3.426 130.496h126.869V3.426H3.426v127.07z"></path><path d="M43.418 102.042h-.02c-.642-.025-1.052-.047-1.332-.149l-.101-.037s-.568-.16-.298-.539c.052-.072.132-.208.132-.208.297-.469.603-1.046.62-1.777v-2.894c0-.336 0-.679-.02-.909-.008-.092-.086-.218-.132-.218h-6.906c-.077 0-.167.007-.248.003-.228-.011-.231.119-.235.26v3.089c0 1.243 0 1.502.646 2.427 0 0-.006.004.061.088.42.523-.279.712-.279.712l-.103.023c-.382.085-.793.13-1.188.13-.772 0-1.382 0-1.999-.176l-.175-.05s-.511-.065-.231-.596c.067-.126.113-.165.113-.165.378-.551.492-.718.492-3.016v-7.65c0-1.591-.201-1.861-.485-2.068l-.204-.149c-.407-.297.064-.669.064-.669l.253-.103a4.77 4.77 0 0 1 1.8-.371c.358 0 1.012.043 1.557.312.047.023.092.048.137.074 0 0 .641.289.236.718-.101.107-.152.136-.152.136-.524.467-.544.608-.544 3.759v.702c0 .096.001.173.005.237.015.281.065.282.181.285h6.657c.117 0 .129.005.414-.007s.283-.221.283-.221v-2.557c0-1.054 0-1.583-.576-2.19 0 0-.042-.042-.097-.103-.368-.409.054-.646.054-.646l.199-.096a4.034 4.034 0 0 1 1.732-.404c.609 0 1.22.138 1.72.388l.138.069s.526.335.097.701l-.128.109c-.477.407-.477.958-.477 1.254v9.403c0 1.042.084 1.492.583 2.103 0 0 .04.036.098.121.36.522-.281.714-.281.714l-.137.024c-.707.127-1.41.127-1.924.127zm34.458.234c-.469 0-1.242-.071-2.255-.411l-.049-.017c-.107-.043-.621-.257-1.067-.445-.236-.1-.466-.197-.636-.271a3.91 3.91 0 0 1-.253-.116c-.796-.238-.796-.963-.796-1.495 0-1.185.276-1.76.843-1.76h.22l.333.334c1.046 1.173 2.035 2.281 3.661 2.281 1.35 0 2.746-.903 2.746-2.414 0-1.202-.726-1.748-2.826-3.148-2.204-1.482-3.416-2.298-3.416-4.402 0-1.731 1.174-3.594 3.75-3.594.815 0 1.258.103 1.818.234l.104.024.043.018c.066.026.327.085.499.124l.216.049c.477.018.965.226 1.055.657.058.155.073.333.073.478 0 .07 0 .291-.005.493-.003.13-.007.283-.037.426-.039.44-.153.803-.646.705-.033-.007-.105-.041-.146-.049-.126-.024-.336-.123-.937-.523-.597-.356-1.504-.737-2.096-.737-.77 0-1.42.525-1.42 1.146 0 .842 1.109 1.559 2.283 2.318l.069.045c2.41 1.575 3.988 2.793 3.988 5.284 0 2.717-2.2 4.766-5.116 4.766zm18.222-.234c-.395 0-.812-.047-1.314-.147l-.096-.019s-.687-.156-.321-.647c.047-.063.046-.092.046-.092.215-.431.334-1.011.334-1.635v-9.735c0-.121 0-.315-.01-.48-.005-.075-.014-.206-.186-.198s-1.829 0-1.829 0c-.407 0-1.647 0-2.359.43l-.051.031-.044.015-.059.028c-.159.075-.402.177-.559.177h-.086l-.082-.027c-.152 0-.219-.081-.324-.187l-.074-.156.003-.278.049-.148c.254-.762.787-2.041 1.499-2.041l.464.003c1.299.134 2.638.134 3.438.134l5.597-.019c.137 0 .587-.013.949-.023.308-.009.582-.016.653-.016.578 0 1.78 0 1.78.941 0 .212-.064.513-.83 1.65l-.02.03c-.261.373-.47.47-.844.47 0 0-.106.02-.24 0-.282-.042-.242-.34-.242-.34l-.026-.116c-.109-.495-.123-.558-2.095-.558 0 0-1.516-.008-1.668 0-.152.008-.142.212-.142.269v9.325c0 1.139.126 1.772.481 2.417 0 0 .021.052.051.093.411.576-.296.658-.296.658l-.108.023a6.692 6.692 0 0 1-1.439.168zm-78.2 17.656l-.144-.016c-.123-.061-.221-.22-.255-.321l-.598-1.275-2.782-6.573c-.469-1.046-.508-1.131-.841-1.527 0 0 .005-.005-.031-.037-.282-.254.037-.447.037-.447l.054-.041c.38-.285.85-.318 1.171-.318.317 0 .574.019.871.113l.094.043s.354.147.203.375l-.062.097c-.02.071.006.171.006.212 0 .147.148.602.438 1.352l1.766 4.196c.112.267.221.499.308.693.059.132.149-.023.149-.023l2.294-5.107c.209-.466.335-.747.335-1.002 0-.097.003-.186-.044-.279-.114-.23.107-.356.107-.356.217-.199.555-.267.857-.267.171 0 .556.006.891.278l.072.058s.176.13-.072.399c-.043.047-.042.049-.042.049-.341.401-.558.909-.77 1.438l-1.312 2.953-2.183 4.782-.089.179-.005.01c-.042.08-.109.212-.208.281a.353.353 0 0 1-.215.081zm15.224-.09c-.176 0-.347-.002-.516-.005l-3.56-.028s-.069-.012-.093-.012c-.152 0-.31-.017-.4-.032 0 0-.542-.104-.244-.559l.034-.052c.408-.629.478-.959.478-1.6v-6.411c0-.501-.072-.588-.452-.968l-.04-.04c-.374-.376.079-.528.079-.528l.103-.034c.342-.114.838-.25 1.258-.25.164 0 .374.008.585.068h3.131c.698 0 1.03.138 1.03.921 0 .256-.038.488-.116.707l-.014.039s-.17.627-.485.203c-.095-.128-.109-.116-.109-.116-.284-.305-.869-.385-1.093-.375h-.017s-1.893-.007-1.961 0c-.068.007-.058.063-.058.063v2.364a2 2 0 0 0 .003.123c.002.04.061.093.098.097.146.015.394.015.652.015h1.375c.63 0 .706-.004.898-.122l.029-.016a.535.535 0 0 1 .244-.052h.086l.077.038c.101.042.16.106.195.168.148.222.156.583.156.66 0 .621-.173.935-.513.935h-.068l-.064-.025a2.044 2.044 0 0 0-.623-.153l-.037-.004c-.312-.05-1.122-.05-2.148-.05a5.427 5.427 0 0 0-.3.019c-.021.002-.058.056-.058.056v2.842c.012.438.061.524.108.549.151.081.586.081 1.189.081 1.177 0 1.573 0 2.119-.383l.066-.04c.504-.292.64-.339.769-.339.277 0 .486.186.486.431 0 .206-.174.962-.604 1.616 0 0-.106.144-.287.163-.183.022-.954.036-1.388.036zm17.174.062a.506.506 0 0 1-.406-.216s-6.566-6.827-6.65-6.911c-.107-.151-.094.129-.094.129v4.811c0 .61 0 .946.368 1.464l.032.044c.282.334-.119.492-.119.492l-.13.029c-.27.06-.553.09-.841.09-.24 0-.5-.024-.795-.073l-.096-.016s-.407-.106-.22-.421l.063-.107c.24-.405.439-.81.439-1.679v-5.323a8.808 8.808 0 0 1-.014-.589c-.023-.411-.323-.761-1.105-1.286l-.051-.035c-.389-.268.009-.546.009-.546l.066-.037c.584-.33 1.226-.346 1.349-.346.477 0 .676.199.951.474l6.036 6.322c.095.095.259.254.344.336.084.082.105.002.105-.044v-4.969c-.013-.506-.046-.866-.385-1.174l-.035-.031c-.317-.288.003-.481.003-.481l.046-.038c.18-.148.556-.395 1.047-.395.378 0 .753.137 1.028.375l.027.023s.275.218.021.479l-.025.026c-.412.423-.428.715-.428 1.883v6.683c0 .395 0 1.057-.54 1.057zm-7.478-7.562zm18.544 7.494a4.67 4.67 0 0 1-.915-.102l-.071-.014s-.446-.071-.207-.456l.024-.049c.151-.302.234-.708.234-1.144v-6.792c0-.1-.016-.342-.012-.399.007-.09-.117-.081-.117-.081h-1.291c-.494 0-1.203.031-1.649.301l-.035.021-.038.013-.033.017c-.11.052-.205.097-.313.097h-.059l-.056-.019a.571.571 0 0 1-.225-.13s-.016-.006-.078-.079-.027-.233-.027-.233l.019-.058c.177-.53.546-1.419 1.039-1.419l.323.002c.907.093 1.841.093 2.399.093l3.905-.014c.099 0 .399-.009.662-.016.215-.006.406-.011.455-.011.401 0 1.234 0 1.234.649 0 .14-.045.356-.579 1.148l-.013.02c-.18.257-.316.298-.574.298 0 0 .153.006-.059 0s-.284-.232-.284-.232l-.012-.054c-.077-.35-.087-.395-1.469-.395h-1.169s-.099-.01-.1.092l-.001.102v6.506c0 .796.088 1.238.336 1.69l.015.027c.311.366-.17.485-.17.485l-.086.019c-.368.08-.687.117-1.003.117zm4.446-9.862zm10.296 10.107c-.073 0-1.796-.012-2.843-1.059l-.025-.027c-.278-.342-.857-1.053-.857-2.625v-5.023c-.012-.7-.012-.7-.357-1.194l-.036-.051c-.177-.253.099-.44.099-.44l.046-.028c.056-.034.113-.064.17-.091.444-.207.903-.207 1.066-.207.242 0 .693 0 1.16.323l.043.03s.302.231.05.483l-.043.043c-.343.343-.357.497-.357 1.594l.001 4.255c.027 1.263.054 2.568 2.058 2.568 1.994 0 2.25-1.268 2.25-2.372v-4.614c0-.712-.015-1.13-.316-1.431l-.031-.031c-.281-.281.028-.484.028-.484l.04-.031c.281-.215.63-.333.983-.333.358 0 .697.131.954.368l.027.025s.258.096.053.408l-.023.034c-.309.469-.349.582-.349 1.951v3.553c.002 1.54.002 4.406-3.791 4.406zm18.756-.177c-.711 0-1.117-.304-1.443-.549-.891-.689-2.072-2.183-2.3-2.476l-.738-.942c-.66-.767-.702-.797-1.14-.797-.054 0-.148-.007-.2-.005-.014 0-.008.09-.008.09v1.989c0 .9.015 1.476.311 1.942l.018.028c.245.386-.118.468-.118.468l-.035.019c-.21.113-.55.174-1.071.193h-.024c-.566-.017-.884-.074-1.098-.199l-.039-.023s-.264-.087-.128-.399l.017-.038c.266-.608.323-.933.323-1.828v-5.975c0-.482 0-.644-.434-1.243l-.034-.047c-.223-.318.149-.483.149-.483l.022-.011c.415-.2.695-.26.892-.29l.055-.004h.232c.235 0 .466.04.664.082h.765c2.584 0 4.066 1.045 4.066 2.868 0 1.072-.555 1.907-1.65 2.485-.02.01-.041.069-.028.091.143.25.519.719.678.888l.016.017.694.817c1.112 1.377 1.84 1.93 2.592 2.339l.075.041s.401.161.06.481c-.048.045-.046.048-.046.048-.407.423-.925.423-1.095.423zm-5.803-6.17c.003 0 .082.053.467.053 1.252 0 2.196-.721 2.196-1.678 0-.749-.596-1.186-1.151-1.275-.432-.063-.527-.063-1.44-.063-.013 0-.061.015-.08.041-.025.033-.019.078-.019.078v2.444c0 .157 0 .353.027.4zm17.057 6.108c-.176 0-.347-.002-.516-.005l-3.56-.028-.012-.012h-.081c-.152 0-.31-.017-.4-.032l-.042-.007s-.495-.109-.237-.5l.034-.051c.438-.663.512-.994.512-1.651v-6.411c0-.501-.072-.588-.452-.968l-.047-.047c-.337-.335.12-.532.12-.532l.069-.023.052-.017c.339-.11.807-.233 1.206-.233.164 0 .374.008.585.068h3.131c.698 0 1.03.138 1.03.921 0 .256-.038.488-.116.707l-.019.054s-.157.545-.553.111l-.036-.039c-.284-.305-.869-.385-1.093-.375h-2.009c-.011.003-.027.052-.027.052v2.375l.002.101c.001.015.004.028.002.04-.004.031.02.079.071.076.014-.001.029.003.045.005.148.013.386.013.633.013h1.375c.63 0 .706-.004.898-.122l.029-.016a.535.535 0 0 1 .244-.052h.086l.078.02a.398.398 0 0 1 .193.187c.148.222.156.583.156.66 0 .621-.173.935-.513.935h-.068l-.064-.025a2.044 2.044 0 0 0-.623-.153l-.037-.004c-.312-.05-1.122-.05-2.148-.05-.07.003-.187.008-.281.017-.028.003-.063.009-.079.065v.127l.002 2.708c.012.438.061.524.108.549.151.081.586.081 1.189.081 1.177 0 1.573 0 2.119-.383l.066-.04c.504-.292.64-.339.769-.339.277 0 .486.186.486.431 0 .196-.158.891-.544 1.521a1.864 1.864 0 0 1-.06.094s-.126.142-.287.163c-.062.008-.064.003-.095.004-.458.02-.885.03-1.291.03zm10.996.158c-.328 0-.867-.05-1.573-.287l-.032-.012c-.76-.304-1.159-.466-1.37-.582-.547-.166-.547-.667-.547-1.035 0-.822.19-1.221.581-1.221h.151l.229.23c.731.819 1.422 1.594 2.56 1.594 1.204 0 1.923-.86 1.923-1.692 0-.842-.508-1.224-1.975-2.202-1.535-1.033-2.38-1.601-2.38-3.066 0-1.204.816-2.5 2.609-2.5.568 0 .877.072 1.268.164l.1.029c.046.019.23.06.351.087l.15.034c.33.012.668.156.73.453.04.108.051.231.051.332 0 .268 0 .48-.028.636a.451.451 0 0 1-.007.053c-.041.23-.135.569-.47.435-.021-.008-.038-.026-.065-.03-.087-.016-.23-.082-.655-.364-.417-.249-1.052-.516-1.466-.516-.541 0-.998.37-.998.807 0 .591.775 1.093 1.596 1.624l.048.031c1.68 1.097 2.779 1.946 2.779 3.681.002 1.89-1.529 3.317-3.56 3.317zm-52.489-17.705c-.372 0-.728-.018-1.122-.04l-.213-.012s-.616.026-.297-.573a.242.242 0 0 0 .031-.102c.083-.27.133-.525.133-.683 0-.205-.039-.335-.071-.408L62.025 97.7a25.92 25.92 0 0 0-.714-1.486c-.039-.06-.088-.103-.241-.103h-3.782s-.152-.03-.249.135l-1.458 3.091c-.331.662-.515 1.048-.515 1.412 0 .088.08.307.128.438 0 0 .006.076.048.131.436.574-.344.608-.344.608l-.129.014c-.364.04-.755.062-1.132.062-.366 0-.713-.02-1.093-.062l-.291-.032s-.794-.246-.174-.744c.064-.051.175-.152.175-.152.499-.434.724-.874 1.036-1.482l.044-.087 5.394-11.683c.03-.074.066-.163.113-.255.14-.275.372-.841.819-.841.394 0 .586.385.897.975.159.302.35.727.618 1.323l.008.019 2.323 5.231 1.842 4.213c.485 1.212.792 1.868 1.515 2.645 0 0-.007.007.108.116.7.666-.265.758-.265.758l-.182.017c-.717.068-1.339.1-1.903.1zm-4.115-7.567c.217-.017.334-.067.3-.317l-1.151-2.802c-.183-.384-.217-.5-.35-.534-.117.033-.183.167-.3.4l-1.151 2.485c-.05.1-.167.384-.167.484 0 .05.017.284.217.284h2.602zm58.079 7.589c-.372 0-.728-.018-1.122-.04l-.213-.012s-.616.026-.297-.573a.242.242 0 0 0 .031-.102c.083-.27.133-.525.133-.683 0-.205-.039-.335-.071-.408l-1.057-2.543a25.92 25.92 0 0 0-.714-1.486c-.039-.06-.088-.103-.241-.103h-3.782s-.152-.03-.249.135l-1.458 3.091c-.331.662-.515 1.048-.515 1.412 0 .088.08.307.128.438 0 0 .006.076.048.131.436.574-.344.608-.344.608l-.129.014c-.364.04-.755.062-1.132.062-.366 0-.713-.02-1.093-.062l-.291-.032s-.794-.246-.174-.744c.064-.051.175-.152.175-.152.499-.434.724-.874 1.036-1.482l.044-.087 5.394-11.683c.03-.074.066-.163.113-.255.14-.275.372-.841.819-.841.394 0 .586.385.897.975.159.302.35.727.618 1.323l.008.019 2.323 5.231 1.842 4.213c.485 1.212.792 1.868 1.515 2.645 0 0-.007.007.108.116.7.666-.265.758-.265.758l-.182.017c-.717.067-1.339.1-1.903.1zm-4.115-7.568c.217-.017.334-.067.3-.317l-1.151-2.802c-.183-.384-.217-.5-.35-.534-.117.033-.183.167-.3.4l-1.151 2.485c-.05.1-.167.384-.167.484 0 .05.017.284.217.284h2.602zm-95.739 7.789c-.515 0-1.363-.078-2.475-.451l-.05-.018a124.108 124.108 0 0 1-1.881-.79c-.105-.046-.199-.086-.281-.128-.845-.249-.845-.997-.845-1.6 0-1.271.287-1.889.876-1.889h.22l.349.35c1.164 1.305 2.264 2.538 4.086 2.538 1.518 0 3.089-1.018 3.089-2.723 0-1.356-.809-1.965-3.147-3.523-2.418-1.627-3.749-2.522-3.749-4.817 0-1.885 1.279-3.915 4.087-3.915.895 0 1.382.114 1.998.258l.108.025.043.018c.074.03.369.097.564.141l.241.055c.506.017 1.002-.004 1.119.684.063.165.079.358.079.514 0 .077 0 .32-.006.544-.004.148-.008.316-.04.469-.032.376-.283.842-.662.804-.138-.014-.296-.121-1.163-.699-.666-.398-1.68-.823-2.345-.823-.88 0-1.624.605-1.624 1.322 0 .96 1.237 1.761 2.547 2.608l.076.049c2.647 1.73 4.38 3.066 4.38 5.791.002 2.968-2.404 5.206-5.594 5.206z" fill="#fff"></path></svg>