<?xml version="1.0" encoding="UTF-8"?>
<svg width="96px" height="52px" viewBox="0 0 96 52" version="1.1" xmlns="http://www.w3.org/2000/svg" xmlns:xlink="http://www.w3.org/1999/xlink">
    <!-- Generator: Sketch 49.3 (51167) - http://www.bohemiancoding.com/sketch -->
    <title>tldr-logo-w</title>
    <desc>Created with Sketch.</desc>
    <defs></defs>
    <g id="Website-V1" stroke="none" stroke-width="1" fill="none" fill-rule="evenodd" opacity="0.640002264">
        <g id="hero-2-copy-2" transform="translate(-632.000000, -975.000000)" fill="#FFFFFF" fill-rule="nonzero">
            <g id="tldr-logo-w" transform="translate(632.000000, 975.000000)">
                <path d="M3.5184,0 L26.8608,0 C26.2824,2.52777778 25.6608,5.04592593 25.0584,7.56648148 C22.5576,7.5712963 20.0568,7.56166667 17.556,7.5737037 C15.204,17.4440741 12.804,27.3024074 10.4904,37.18 C7.6008,37.2112963 4.7112,37.1872222 1.8192,37.192037 C4.236,27.3264815 6.54,17.4344444 8.9448,7.56648148 C6.516,7.56888889 4.0848,7.5737037 1.656,7.56407407 C2.3448,5.06037037 2.856,2.51092593 3.5184,0 Z" id="Shape"></path>
                <path d="M27.6216,0 L36.2472,0 C33.9216,9.86796296 31.5432,19.7238889 29.1768,29.5798148 C33.144,29.575 37.1136,29.5846296 41.0808,29.575 C40.464,32.1027778 39.8328,34.6281481 39.2736,37.1703704 C32.412,37.2233333 25.548,37.1848148 18.6864,37.1896296 C21.7176,24.8059259 24.6216,12.3909259 27.6216,0 Z" id="Shape"></path>
                <path d="M48.9576,0 L60.6024,0 C62.4936,0.127592605 64.4256,0.421296339 66.1008,1.36259273 C68.004,2.3905558 69.4032,4.23222265 70.008,6.30259323 C70.812,9.18666759 70.608,12.2440753 70.1976,15.1762978 C69.1752,21.5607429 66.684,27.9692621 61.9296,32.492781 C58.9248,35.4129665 54.8112,37.0716704 50.64,37.1824111 C47.1696,37.2137074 43.7016,37.1824111 40.2336,37.1969319 C43.248,24.8083358 46.152,12.3909272 49.1688,0.00240740765 L48.9576,0 Z M56.0352,7.25592593 C54.2256,14.8127778 52.4424,22.3744444 50.5968,29.9240741 C52.2576,30.0035185 53.9688,29.5822222 55.2912,28.5422222 C57.504,26.8305556 58.764,24.2161111 59.7024,21.645 C60.6936,18.7103704 61.5192,15.6577778 61.536,12.5377778 C61.4808,10.9922222 61.3008,9.21074074 60.0552,8.13462963 C58.9536,7.16685185 57.4056,7.21259259 56.0352,7.25592593 Z" id="Shape"></path>
                <path d="M74.4408,0 L88.368,0 C90.0984,0.134814815 91.8888,0.442962963 93.3576,1.43481481 C94.7712,2.33518519 95.7768,3.8687037 95.9352,5.55388889 C96.1776,8.19481481 95.3664,10.8838889 93.9048,13.0722222 C91.9152,16.0357407 88.6656,17.8653704 85.3488,18.9607407 C85.9776,19.2087037 86.6712,19.2809259 87.264,19.6251852 C88.392,20.2077778 89.2416,21.2718519 89.6016,22.49 C90.1008,23.9874074 89.916,25.5811111 89.9064,27.1290741 C89.8608,30.4825926 89.676,33.8337037 89.6616,37.1872222 C86.496,37.1944444 83.3304,37.2088889 80.1672,37.18 C80.5896,33.7903704 80.9016,30.3862963 81.2688,26.9894444 C81.3384,25.6268519 81.5376,24.1246296 80.8392,22.88 C80.208,21.8640741 78.8712,21.8448148 77.8104,21.8977778 C76.5984,26.9990741 75.3744,32.0955556 74.1504,37.192037 C71.268,37.1896296 68.3832,37.2064815 65.5008,37.1848148 C68.5416,24.8059259 71.436,12.3885185 74.4408,0 Z M81.3216,7.2462963 C80.6784,9.90166667 80.0688,12.5666667 79.3968,15.2148148 C80.7288,15.1787037 82.128,15.3640741 83.388,14.807963 C85.3128,13.9894444 86.508,11.9238889 86.6088,9.87277778 C86.712,8.97962963 86.3328,7.98777778 85.4808,7.59777778 C84.18,7.00796296 82.7016,7.33055556 81.3216,7.2462963 Z" id="Shape"></path>
                <path d="M1.1064,42.7290741 C2.8704,40.235 6.7296,40.0688889 8.988,41.9755556 C8.8392,42.1585185 8.6856,42.3438889 8.5344,42.5268519 C6.8064,41.0438889 3.9792,40.9211111 2.2872,42.5124074 C0.4896,44.3155556 0.3792,47.4427778 1.7376,49.53 C3.2592,51.7977778 6.8568,51.882037 8.6904,49.9585185 C8.8584,50.1077778 9.024,50.2594444 9.1896,50.4111111 C8.1864,51.415 6.8232,51.9975926 5.4024,52 L4.9752,52 C3.684,51.9446296 2.3856,51.4559259 1.5,50.4905556 C0.4464,49.4024074 0.0504,47.8544444 0,46.3738889 L0,46.357037 C0.0432,45.0811111 0.3312,43.7690741 1.1064,42.7290741 Z" id="Shape"></path>
                <path d="M48.204,40.8175926 C48.4824,40.8151852 48.7632,40.8127778 49.044,40.8055556 C49.0224,44.4937037 49.0272,48.1794444 49.0416,51.8675926 C48.8328,51.8675926 48.42,51.8675926 48.2112,51.8675926 C48.2112,48.1842593 48.228,44.5009259 48.204,40.8175926 Z" id="Shape"></path>
                <path d="M20.2296,40.8344444 C20.5056,40.8224074 20.7792,40.8103704 21.0552,40.8007407 C22.5744,44.4937037 24.0456,48.2035185 25.5912,51.8844444 C25.2096,51.8724074 24.7008,51.987963 24.5952,51.4968519 C24.1704,50.4953704 23.7864,49.477037 23.3856,48.4683333 C21.6,48.4538889 19.812,48.4394444 18.0288,48.4707407 C17.4048,49.5155556 17.1168,50.7674074 16.5576,51.8651852 C16.3512,51.8675926 15.9432,51.87 15.7392,51.87 C17.2656,48.2035185 18.7704,44.5274074 20.2296,40.8344444 Z M20.6232,41.6866667 C19.8912,43.7690741 19.02,45.8009259 18.1824,47.8448148 C19.8336,47.8568519 21.4848,47.8375926 23.136,47.8568519 C22.272,45.8105556 21.5136,43.7137037 20.6232,41.6866667 Z" id="Shape"></path>
                <path d="M33.288,40.807963 C35.0376,40.9066667 36.9168,40.4974074 38.5512,41.2942593 C40.5696,42.3101852 40.5696,45.6011111 38.6712,46.7446296 C37.3296,47.657037 35.6472,47.3537037 34.1256,47.4042593 C34.116,48.892037 34.1208,50.3822222 34.128,51.87 C33.9168,51.87 33.4992,51.8675926 33.288,51.8675926 C33.3024,48.1818519 33.3048,44.4937037 33.288,40.807963 Z M34.1016,41.4675926 C34.1328,43.2298148 34.1352,44.9968519 34.1016,46.7614815 C34.8936,46.7590741 35.688,46.7903704 36.48,46.7566667 C37.5384,46.722963 38.628,46.1475926 39.0624,45.1437037 C39.5424,43.9905556 39.2184,42.4209259 38.0424,41.8214815 C36.8184,41.2292593 35.4096,41.5133333 34.1016,41.4675926 Z" id="Shape"></path>
                <path d="M56.7816,40.807963 C59.6496,40.8031481 62.52,40.8031481 65.3904,40.8103704 C65.388,40.9788889 65.3856,41.3207407 65.3856,41.4916667 C64.0824,41.4964815 62.7816,41.482037 61.4784,41.5012963 C61.536,44.9583333 61.4784,48.412963 61.512,51.87 C61.3032,51.87 60.8856,51.8675926 60.6792,51.8675926 C60.6888,48.4057407 60.6792,44.9462963 60.684,41.4844444 C59.3856,41.5012963 58.0872,41.4868519 56.7888,41.4916667 C56.7864,41.3207407 56.784,40.9788889 56.7816,40.807963 Z" id="Shape"></path>
                <path d="M70.5936,51.8844444 C72.1536,48.2107407 73.6056,44.4937037 75.1392,40.8103704 C75.3264,40.8055556 75.7008,40.7935185 75.888,40.7887037 C77.4648,44.4648148 78.8952,48.2035185 80.4552,51.8892593 C80.0904,51.8483333 79.5432,51.9975926 79.4544,51.492037 C79.0416,50.4785185 78.6504,49.4601852 78.2256,48.4538889 C76.4256,48.4562963 74.628,48.4538889 72.828,48.4562963 C72.3672,49.5757407 71.9136,50.6975926 71.4792,51.8266667 C71.2584,51.8411111 70.8168,51.87 70.5936,51.8844444 Z M73.0488,47.84 C74.7072,47.8496296 76.3656,47.8616667 78.024,47.8327778 C77.1552,45.8153704 76.3152,43.7811111 75.5832,41.7083333 C74.652,43.7064815 73.9464,45.8201852 73.0488,47.84 Z" id="Shape"></path>
                <path d="M88.1448,51.8459259 C88.2168,48.1601852 88.152,44.472037 88.176,40.7838889 C88.3848,40.7959259 88.8,40.8224074 89.0088,40.8344444 C88.9176,44.2842593 89.0112,47.7364815 88.9608,51.1862963 C90.7104,51.2103704 92.4624,51.1887037 94.212,51.1983333 C94.2144,51.3644444 94.2168,51.6990741 94.2192,51.8651852 C92.1936,51.8603704 90.168,51.8964815 88.1448,51.8459259 Z" id="Shape"></path>
            </g>
        </g>
    </g>
</svg>